<?xml version="1.0" standalone="no"?><!DOCTYPE svg PUBLIC "-//W3C//DTD SVG 1.1//EN" "http://www.w3.org/Graphics/SVG/1.1/DTD/svg11.dtd"><svg t="1714061266059" class="icon" viewBox="0 0 1024 1024" version="1.1" xmlns="http://www.w3.org/2000/svg" p-id="4322" xmlns:xlink="http://www.w3.org/1999/xlink" width="200" height="200"><path d="M895.6 860.048l0.144-0.016-64-512-0.144 0.016A31.888 31.888 0 0 0 800 320h-110.816l-1.52-22.864h-0.016C684 203.28 606.736 128 512 128s-172 75.28-175.648 169.136h-0.032L334.8 320H224c-16.32 0-29.632 12.256-31.6 28.048l-0.144-0.016-64 512 0.144 0.016c-0.16 1.312-0.4 2.592-0.4 3.952a32 32 0 0 0 32 32h704a32 32 0 0 0 32-32c0-1.36-0.24-2.64-0.4-3.952zM400.176 301.36h-0.048C401.552 240.832 451.136 192 512 192s110.448 48.832 111.872 109.36h-0.048L625.056 320H398.944l1.232-18.64z m-80.112 240.512l0.144 0.016c-0.048 0.704-0.208 1.392-0.208 2.112a31.92 31.92 0 1 0 63.792 2.112l0.144 0.016L394.688 384h234.608l10.768 162.128 0.128-0.016A31.952 31.952 0 0 0 704 544c0-0.72-0.16-1.408-0.208-2.112l0.144-0.016L693.44 384h78.304l56 448H196.24l56-448h78.304l-10.48 157.872z" fill="#ffffff" p-id="4323"></path></svg>