<svg version="1.1" viewBox="0.0 0.0 250.0 250.0" fill="none" stroke="none" stroke-linecap="square" stroke-miterlimit="10" xmlns:xlink="http://www.w3.org/1999/xlink" xmlns="http://www.w3.org/2000/svg"><clipPath id="g272fafa4e21_0_0.0"><path d="m0 0l250.0 0l0 250.0l-250.0 0l0 -250.0z" clip-rule="nonzero"/></clipPath><g clip-path="url(#g272fafa4e21_0_0.0)"><path fill="#000000" fill-opacity="0.0" d="m0 0l250.0 0l0 250.0l-250.0 0z" fill-rule="evenodd"/><path fill="#000000" fill-opacity="0.0" d="m-185.71683 354.52002l675.4331 0l0 108.25195l-675.4331 0z" fill-rule="evenodd"/><path fill="#ffffff" d="m-76.08329 424.32l0 -32.65625l2.015625 0l15.15625 26.171875l-1.078125 0l15.125 -26.171875l1.953125 0l0.046875 32.65625l-2.328125 0l-0.046875 -29.0625l0.65625 0l-14.328125 24.71875l-1.171875 0l-14.359375 -24.71875l0.703125 0l0 29.0625l-2.34375 0zm59.21263 0l0 -5.546875l-0.09375 -0.84375l0 -9.140625q0 -3.40625 -1.84375 -5.171875q-1.84375 -1.78125 -5.390625 -1.78125q-2.515625 0 -4.6875 0.859375q-2.171875 0.859375 -3.703125 2.21875l-1.171875 -1.6875q1.8125 -1.625 4.375 -2.53125q2.578125 -0.921875 5.375 -0.921875q4.53125 0 6.953125 2.296875q2.421875 2.28125 2.421875 6.8125l0 15.4375l-2.234375 0zm-8.765625 0.1875q-2.71875 0 -4.703125 -0.859375q-1.96875 -0.875 -3.03125 -2.453125q-1.046875 -1.59375 -1.046875 -3.640625q0 -1.859375 0.859375 -3.375q0.875 -1.515625 2.875 -2.46875q2.0 -0.96875 5.359375 -0.96875l8.96875 0l0 1.828125l-8.921875 0q-3.765625 0 -5.296875 1.40625q-1.515625 1.390625 -1.515625 3.484375q0 2.328125 1.765625 3.734375q1.78125 1.40625 5.0 1.40625q3.09375 0 5.203125 -1.40625q2.125 -1.40625 3.15625 -4.0625l0.65625 1.59375q-0.984375 2.65625 -3.34375 4.21875q-2.359375 1.5625 -5.984375 1.5625zm22.388031 -6.90625l0.046875 -2.9375l16.09375 -14.703125l2.984375 0l-10.6875 10.03125l-1.390625 1.171875l-7.046875 6.4375zm-1.765625 6.71875l0 -34.625l2.328125 0l0 34.625l-2.328125 0zm19.03125 0l-10.640625 -13.34375l1.59375 -1.71875l11.9375 15.0625l-2.890625 0zm17.313187 0.1875q-3.6875 0 -6.515625 -1.578125q-2.828125 -1.59375 -4.4375 -4.390625q-1.609375 -2.796875 -1.609375 -6.390625q0 -3.640625 1.515625 -6.421875q1.515625 -2.78125 4.171875 -4.359375q2.671875 -1.59375 5.984375 -1.59375q3.3125 0 5.9375 1.546875q2.640625 1.53125 4.15625 4.3125q1.515625 2.78125 1.515625 6.421875q0 0.140625 -0.03125 0.3125q-0.015625 0.15625 -0.015625 0.328125l-21.5 0l0 -1.8125l20.25 0l-0.9375 0.890625q0.046875 -2.84375 -1.1875 -5.109375q-1.234375 -2.265625 -3.34375 -3.546875q-2.09375 -1.28125 -4.84375 -1.28125q-2.703125 0 -4.828125 1.28125q-2.125 1.28125 -3.34375 3.546875q-1.203125 2.265625 -1.203125 5.15625l0 0.421875q0 2.984375 1.328125 5.296875q1.328125 2.296875 3.65625 3.59375q2.328125 1.28125 5.328125 1.28125q2.328125 0 4.359375 -0.84375q2.03125 -0.84375 3.421875 -2.5625l1.359375 1.53125q-1.59375 1.96875 -4.0 2.96875q-2.390625 1.0 -5.1875 1.0zm25.23497 -0.1875l15.01561 -32.65625l2.390625 0l15.015625 32.65625l-2.5625 0l-14.1875 -31.171875l1.03125 0l-14.14061 31.171875l-2.5625 0zm5.5 -9.1875l0.796875 -2.015625l19.54686 0l0.796875 2.015625l-21.14061 0zm32.845688 9.1875l0 -32.65625l2.390625 0l0 32.65625l-2.390625 0zm34.53547 0.1875q-3.5000076 0 -6.2343826 -1.578125q-2.734375 -1.59375 -4.34375 -4.390625q-1.609375 -2.796875 -1.609375 -6.390625q0 -3.640625 1.609375 -6.421875q1.609375 -2.78125 4.34375 -4.359375q2.734375 -1.59375 6.2343826 -1.59375q3.5 0 6.25 1.59375q2.75 1.578125 4.328125 4.359375q1.59375 2.78125 1.59375 6.421875q0 3.59375 -1.59375 6.390625q-1.578125 2.796875 -4.328125 4.390625q-2.75 1.578125 -6.25 1.578125zm0 -2.09375q2.796875 0 5.03125 -1.28125q2.234375 -1.296875 3.5 -3.625q1.265625 -2.328125 1.265625 -5.359375q0 -3.078125 -1.265625 -5.390625q-1.265625 -2.3125 -3.5 -3.59375q-2.234375 -1.28125 -5.03125 -1.28125q-2.8125076 0 -5.0312576 1.28125q-2.203125 1.28125 -3.484375 3.59375q-1.28125 2.3125 -1.28125 5.390625q0 3.03125 1.28125 5.359375q1.28125 2.328125 3.484375 3.625q2.21875 1.28125 5.0312576 1.28125zm31.629944 2.09375q-3.21875 0 -5.8125 -1.484375q-2.59375 -1.5 -4.109375 -4.265625q-1.515625 -2.78125 -1.515625 -6.609375q0 -3.828125 1.515625 -6.609375q1.515625 -2.78125 4.109375 -4.265625q2.59375 -1.5 5.8125 -1.5q3.453125 0 6.171875 1.5625q2.734375 1.5625 4.296875 4.375q1.5625 2.796875 1.5625 6.4375q0 3.640625 -1.5625 6.4375q-1.5625 2.796875 -4.296875 4.359375q-2.71875 1.5625 -6.171875 1.5625zm-12.21875 8.859375l0 -33.40625l2.234375 0l0 7.984375l-0.375 4.25l0.46875 4.234375l0 16.9375l-2.328125 0zm12.078125 -10.953125q2.796875 0 5.03125 -1.28125q2.25 -1.296875 3.53125 -3.625q1.28125 -2.328125 1.28125 -5.359375q0 -3.078125 -1.28125 -5.390625q-1.28125 -2.3125 -3.53125 -3.59375q-2.234375 -1.28125 -5.03125 -1.28125q-2.796875 0 -5.015625 1.28125q-2.21875 1.28125 -3.5 3.59375q-1.28125 2.3125 -1.28125 5.390625q0 3.03125 1.28125 5.359375q1.28125 2.328125 3.5 3.625q2.21875 1.28125 5.015625 1.28125zm29.305359 2.09375q-3.6875 0 -6.515625 -1.578125q-2.828125 -1.59375 -4.4375 -4.390625q-1.609375 -2.796875 -1.609375 -6.390625q0 -3.640625 1.515625 -6.421875q1.515625 -2.78125 4.171875 -4.359375q2.671875 -1.59375 5.984375 -1.59375q3.3125 0 5.9375 1.546875q2.640625 1.53125 4.15625 4.3125q1.515625 2.78125 1.515625 6.421875q0 0.140625 -0.03125 0.3125q-0.015625 0.15625 -0.015625 0.328125l-21.5 0l0 -1.8125l20.25 0l-0.9375 0.890625q0.046875 -2.84375 -1.1875 -5.109375q-1.234375 -2.265625 -3.34375 -3.546875q-2.09375 -1.28125 -4.84375 -1.28125q-2.703125 0 -4.828125 1.28125q-2.125 1.28125 -3.34375 3.546875q-1.203125 2.265625 -1.203125 5.15625l0 0.421875q0 2.984375 1.328125 5.296875q1.328125 2.296875 3.65625 3.59375q2.328125 1.28125 5.328125 1.28125q2.328125 0 4.359375 -0.84375q2.03125 -0.84375 3.421875 -2.5625l1.359375 1.53125q-1.59375 1.96875 -4.0 2.96875q-2.390625 1.0 -5.1875 1.0zm29.853699 -24.734375q2.984375 0 5.203125 1.15625q2.21875 1.140625 3.453125 3.453125q1.234375 2.296875 1.234375 5.703125l0 14.234375l-2.328125 0l0 -14.046875q0 -4.109375 -2.078125 -6.25q-2.078125 -2.140625 -5.8125 -2.140625q-2.84375 0 -4.953125 1.171875q-2.09375 1.15625 -3.1875 3.265625q-1.09375 2.09375 -1.09375 5.03125l0 12.96875l-2.328125 0l0 -24.359375l2.234375 0l0 6.765625l-0.328125 -0.734375q1.125 -2.90625 3.6875 -4.5625q2.5625 -1.65625 6.296875 -1.65625zm46.843353 24.546875l0 -5.546875l-0.09375 -0.84375l0 -9.140625q0 -3.40625 -1.84375 -5.171875q-1.84375 -1.78125 -5.390625 -1.78125q-2.515625 0 -4.6875 0.859375q-2.171875 0.859375 -3.703125 2.21875l-1.171875 -1.6875q1.8125 -1.625 4.375 -2.53125q2.578125 -0.921875 5.375 -0.921875q4.53125 0 6.953125 2.296875q2.421875 2.28125 2.421875 6.8125l0 15.4375l-2.234375 0zm-8.765625 0.1875q-2.71875 0 -4.703125 -0.859375q-1.96875 -0.875 -3.03125 -2.453125q-1.046875 -1.59375 -1.046875 -3.640625q0 -1.859375 0.859375 -3.375q0.875 -1.515625 2.875 -2.46875q2.0 -0.96875 5.359375 -0.96875l8.96875 0l0 1.828125l-8.921875 0q-3.765625 0 -5.296875 1.40625q-1.515625 1.390625 -1.515625 3.484375q0 2.328125 1.765625 3.734375q1.78125 1.40625 5.0 1.40625q3.09375 0 5.203125 -1.40625q2.125 -1.40625 3.15625 -4.0625l0.65625 1.59375q-0.984375 2.65625 -3.34375 4.21875q-2.359375 1.5625 -5.984375 1.5625zm30.731781 9.046875q-3.3125 0 -6.296875 -1.03125q-2.984375 -1.015625 -4.84375 -2.84375l1.25 -1.765625q1.828125 1.671875 4.359375 2.609375q2.546875 0.9375 5.484375 0.9375q4.90625 0 7.21875 -2.296875q2.3125 -2.28125 2.3125 -7.171875l0 -6.765625l0.453125 -3.640625l-0.359375 -3.640625l0 -7.984375l2.234375 0l0 21.75q0 6.109375 -2.96875 8.96875q-2.953125 2.875 -8.84375 2.875zm-0.640625 -10.125q-3.453125 0 -6.1875 -1.515625q-2.734375 -1.515625 -4.34375 -4.1875q-1.609375 -2.6875 -1.609375 -6.140625q0 -3.5 1.609375 -6.15625q1.609375 -2.671875 4.34375 -4.15625q2.734375 -1.5 6.1875 -1.5q3.3125 0 5.9375 1.4375q2.640625 1.421875 4.171875 4.0625q1.546875 2.625 1.546875 6.3125q0 3.640625 -1.546875 6.296875q-1.53125 2.65625 -4.171875 4.109375q-2.625 1.4375 -5.9375 1.4375zm0.1875 -2.09375q2.9375 0 5.171875 -1.234375q2.234375 -1.234375 3.515625 -3.453125q1.296875 -2.21875 1.296875 -5.0625q0 -2.890625 -1.296875 -5.078125q-1.28125 -2.203125 -3.515625 -3.40625q-2.234375 -1.21875 -5.171875 -1.21875q-2.859375 0 -5.125 1.21875q-2.25 1.203125 -3.53125 3.40625q-1.28125 2.1875 -1.28125 5.078125q0 2.84375 1.28125 5.0625q1.28125 2.21875 3.53125 3.453125q2.265625 1.234375 5.125 1.234375zm37.50699 2.984375l0 -5.546875l-0.09375 -0.84375l0 -9.140625q0 -3.40625 -1.84375 -5.171875q-1.84375 -1.78125 -5.390625 -1.78125q-2.515625 0 -4.6875 0.859375q-2.171875 0.859375 -3.703125 2.21875l-1.171875 -1.6875q1.8125 -1.625 4.375 -2.53125q2.578125 -0.921875 5.375 -0.921875q4.53125 0 6.953125 2.296875q2.4219055 2.28125 2.4219055 6.8125l0 15.4375l-2.2344055 0zm-8.765625 0.1875q-2.71875 0 -4.703125 -0.859375q-1.96875 -0.875 -3.03125 -2.453125q-1.046875 -1.59375 -1.046875 -3.640625q0 -1.859375 0.859375 -3.375q0.875 -1.515625 2.875 -2.46875q2.0 -0.96875 5.359375 -0.96875l8.9687805 0l0 1.828125l-8.9219055 0q-3.765625 0 -5.296875 1.40625q-1.515625 1.390625 -1.515625 3.484375q0 2.328125 1.765625 3.734375q1.78125 1.40625 5.0 1.40625q3.09375 0 5.203125 -1.40625q2.125 -1.40625 3.15625 -4.0625l0.6562805 1.59375q-0.9844055 2.65625 -3.3437805 4.21875q-2.359375 1.5625 -5.984375 1.5625zm20.622406 -0.1875l0 -24.359375l2.328125 0l0 24.359375l-2.328125 0zm1.15625 -30.28125q-0.796875 0 -1.359375 -0.5625q-0.5625 -0.5625 -0.5625 -1.296875q0 -0.796875 0.5625 -1.359375q0.5625 -0.5625 1.359375 -0.5625q0.84375 0 1.375 0.546875q0.53125 0.53125 0.53125 1.328125q0 0.78125 -0.53125 1.34375q-0.53125 0.5625 -1.375 0.5625zm22.911621 5.734375q2.984375 0 5.203125 1.15625q2.21875 1.140625 3.453125 3.453125q1.234375 2.296875 1.234375 5.703125l0 14.234375l-2.328125 0l0 -14.046875q0 -4.109375 -2.078125 -6.25q-2.078125 -2.140625 -5.8125 -2.140625q-2.84375 0 -4.953125 1.171875q-2.09375 1.15625 -3.1875 3.265625q-1.09375 2.09375 -1.09375 5.03125l0 12.96875l-2.328125 0l0 -24.359375l2.234375 0l0 6.765625l-0.328125 -0.734375q1.125 -2.90625 3.6875 -4.5625q2.5625 -1.65625 6.296875 -1.65625zm19.227722 24.734375q-0.796875 0 -1.390625 -0.578125q-0.578125 -0.59375 -0.578125 -1.421875q0 -0.84375 0.578125 -1.40625q0.59375 -0.5625 1.390625 -0.5625q0.78125 0 1.359375 0.5625q0.59375 0.5625 0.59375 1.40625q0 0.828125 -0.59375 1.421875q-0.578125 0.578125 -1.359375 0.578125z" fill-rule="nonzero"/><path fill="#ffffff" d="m17.664042 112.926796l0 0c0 -6.1751556 5.2809258 -11.181107 11.795277 -11.181107l0 0c3.1283016 0 6.128477 1.178009 8.340517 3.2748718c2.2120438 2.0968628 3.4547577 4.940819 3.4547577 7.9062347l0 0c0 6.175148 -5.2809258 11.181099 -11.795275 11.181099l0 0c-6.514351 0 -11.795277 -5.005951 -11.795277 -11.181099z" fill-rule="evenodd"/><path stroke="#ffffff" stroke-width="1.0" stroke-linejoin="round" stroke-linecap="butt" d="m17.664042 112.926796l0 0c0 -6.1751556 5.2809258 -11.181107 11.795277 -11.181107l0 0c3.1283016 0 6.128477 1.178009 8.340517 3.2748718c2.2120438 2.0968628 3.4547577 4.940819 3.4547577 7.9062347l0 0c0 6.175148 -5.2809258 11.181099 -11.795275 11.181099l0 0c-6.514351 0 -11.795277 -5.005951 -11.795277 -11.181099z" fill-rule="evenodd"/><path fill="#ffffff" d="m182.6996 197.78807l0 0c0 -6.1751556 5.2809296 -11.181107 11.795288 -11.181107l0 0c3.128296 0 6.1284637 1.178009 8.340515 3.2748718c2.2120361 2.0968628 3.4547577 4.9408264 3.4547577 7.9062347l0 0c0 6.1751556 -5.2809296 11.181107 -11.795273 11.181107l0 0c-6.5143585 0 -11.795288 -5.005951 -11.795288 -11.181107z" fill-rule="evenodd"/><path stroke="#ffffff" stroke-width="1.0" stroke-linejoin="round" stroke-linecap="butt" d="m182.6996 197.78807l0 0c0 -6.1751556 5.2809296 -11.181107 11.795288 -11.181107l0 0c3.128296 0 6.1284637 1.178009 8.340515 3.2748718c2.2120361 2.0968628 3.4547577 4.9408264 3.4547577 7.9062347l0 0c0 6.1751556 -5.2809296 11.181107 -11.795273 11.181107l0 0c-6.5143585 0 -11.795288 -5.005951 -11.795288 -11.181107z" fill-rule="evenodd"/><path fill="#ffffff" d="m182.86964 112.926796l0 0c0 -6.1751556 5.2809296 -11.181107 11.795273 -11.181107l0 0c3.1283112 0 6.128479 1.178009 8.34053 3.2748718c2.2120361 2.0968628 3.4547424 4.940819 3.4547424 7.9062347l0 0c0 6.175148 -5.2809143 11.181099 -11.795273 11.181099l0 0c-6.5143433 0 -11.795273 -5.005951 -11.795273 -11.181099z" fill-rule="evenodd"/><path stroke="#ffffff" stroke-width="1.0" stroke-linejoin="round" stroke-linecap="butt" d="m182.86964 112.926796l0 0c0 -6.1751556 5.2809296 -11.181107 11.795273 -11.181107l0 0c3.1283112 0 6.128479 1.178009 8.34053 3.2748718c2.2120361 2.0968628 3.4547424 4.940819 3.4547424 7.9062347l0 0c0 6.175148 -5.2809143 11.181099 -11.795273 11.181099l0 0c-6.5143433 0 -11.795273 -5.005951 -11.795273 -11.181099z" fill-rule="evenodd"/><path fill="#ffffff" d="m17.664042 154.64977l0 0c0 -6.1751556 5.2809258 -11.181107 11.795277 -11.181107l0 0c3.1283016 0 6.128477 1.178009 8.340517 3.2748718c2.2120438 2.0968628 3.4547577 4.940811 3.4547577 7.9062347l0 0c0 6.1751404 -5.2809258 11.181091 -11.795275 11.181091l0 0c-6.514351 0 -11.795277 -5.005951 -11.795277 -11.181091z" fill-rule="evenodd"/><path stroke="#ffffff" stroke-width="1.0" stroke-linejoin="round" stroke-linecap="butt" d="m17.664042 154.64977l0 0c0 -6.1751556 5.2809258 -11.181107 11.795277 -11.181107l0 0c3.1283016 0 6.128477 1.178009 8.340517 3.2748718c2.2120438 2.0968628 3.4547577 4.940811 3.4547577 7.9062347l0 0c0 6.1751404 -5.2809258 11.181091 -11.795275 11.181091l0 0c-6.514351 0 -11.795277 -5.005951 -11.795277 -11.181091z" fill-rule="evenodd"/><path fill="#ffffff" d="m220.2341 223.59303l0 0c0 -6.1751556 5.2809296 -11.181107 11.795273 -11.181107l0 0c3.1283112 0 6.128479 1.178009 8.34053 3.2748718c2.2120361 2.0968628 3.4547577 4.9408264 3.4547577 7.9062347l0 0c0 6.1751556 -5.2809296 11.181107 -11.795288 11.181107l0 0c-6.5143433 0 -11.795273 -5.005951 -11.795273 -11.181107z" fill-rule="evenodd"/><path stroke="#ffffff" stroke-width="1.0" stroke-linejoin="round" stroke-linecap="butt" d="m220.2341 223.59303l0 0c0 -6.1751556 5.2809296 -11.181107 11.795273 -11.181107l0 0c3.1283112 0 6.128479 1.178009 8.34053 3.2748718c2.2120361 2.0968628 3.4547577 4.9408264 3.4547577 7.9062347l0 0c0 6.1751556 -5.2809296 11.181107 -11.795288 11.181107l0 0c-6.5143433 0 -11.795273 -5.005951 -11.795273 -11.181107z" fill-rule="evenodd"/><path fill="#ffffff" d="m58.165443 154.64977l0 0c0 -6.1751556 5.2809258 -11.181107 11.795273 -11.181107l0 0c3.1283035 0 6.128479 1.178009 8.340523 3.2748718c2.2120438 2.0968628 3.4547577 4.940811 3.4547577 7.9062347l0 0c0 6.1751404 -5.2809296 11.181091 -11.79528 11.181091l0 0c-6.514347 0 -11.795273 -5.005951 -11.795273 -11.181091z" fill-rule="evenodd"/><path stroke="#ffffff" stroke-width="1.0" stroke-linejoin="round" stroke-linecap="butt" d="m58.165443 154.64977l0 0c0 -6.1751556 5.2809258 -11.181107 11.795273 -11.181107l0 0c3.1283035 0 6.128479 1.178009 8.340523 3.2748718c2.2120438 2.0968628 3.4547577 4.940811 3.4547577 7.9062347l0 0c0 6.1751404 -5.2809296 11.181091 -11.79528 11.181091l0 0c-6.514347 0 -11.795273 -5.005951 -11.795273 -11.181091z" fill-rule="evenodd"/><path fill="#ffffff" d="m140.30414 154.64977l0 0c0 -6.1751556 5.2809143 -11.181107 11.795273 -11.181107l0 0c3.128296 0 6.128479 1.178009 8.340515 3.2748718c2.2120514 2.0968628 3.4547577 4.940811 3.4547577 7.9062347l0 0c0 6.1751404 -5.2809296 11.181091 -11.795273 11.181091l0 0c-6.5143585 0 -11.795273 -5.005951 -11.795273 -11.181091z" fill-rule="evenodd"/><path stroke="#ffffff" stroke-width="1.0" stroke-linejoin="round" stroke-linecap="butt" d="m140.30414 154.64977l0 0c0 -6.1751556 5.2809143 -11.181107 11.795273 -11.181107l0 0c3.128296 0 6.128479 1.178009 8.340515 3.2748718c2.2120514 2.0968628 3.4547577 4.940811 3.4547577 7.9062347l0 0c0 6.1751404 -5.2809296 11.181091 -11.795273 11.181091l0 0c-6.5143585 0 -11.795273 -5.005951 -11.795273 -11.181091z" fill-rule="evenodd"/><path fill="#ffffff" d="m182.86964 154.64977l0 0c0 -6.1751556 5.2809296 -11.181107 11.795273 -11.181107l0 0c3.1283112 0 6.128479 1.178009 8.34053 3.2748718c2.2120361 2.0968628 3.4547424 4.940811 3.4547424 7.9062347l0 0c0 6.1751404 -5.2809143 11.181091 -11.795273 11.181091l0 0c-6.5143433 0 -11.795273 -5.005951 -11.795273 -11.181091z" fill-rule="evenodd"/><path stroke="#ffffff" stroke-width="1.0" stroke-linejoin="round" stroke-linecap="butt" d="m182.86964 154.64977l0 0c0 -6.1751556 5.2809296 -11.181107 11.795273 -11.181107l0 0c3.1283112 0 6.128479 1.178009 8.34053 3.2748718c2.2120361 2.0968628 3.4547424 4.940811 3.4547424 7.9062347l0 0c0 6.1751404 -5.2809143 11.181091 -11.795273 11.181091l0 0c-6.5143433 0 -11.795273 -5.005951 -11.795273 -11.181091z" fill-rule="evenodd"/><path fill="#ffffff" d="m17.664042 71.61837l0 0c0 -6.175148 5.2809258 -11.181103 11.795277 -11.181103l0 0c3.1283016 0 6.128477 1.1780052 8.340517 3.2748718c2.2120438 2.096859 3.4547577 4.9408226 3.4547577 7.906231l0 0c0 6.1751556 -5.2809258 11.181107 -11.795275 11.181107l0 0c-6.514351 0 -11.795277 -5.005951 -11.795277 -11.181107z" fill-rule="evenodd"/><path stroke="#ffffff" stroke-width="1.0" stroke-linejoin="round" stroke-linecap="butt" d="m17.664042 71.61837l0 0c0 -6.175148 5.2809258 -11.181103 11.795277 -11.181103l0 0c3.1283016 0 6.128477 1.1780052 8.340517 3.2748718c2.2120438 2.096859 3.4547577 4.9408226 3.4547577 7.906231l0 0c0 6.1751556 -5.2809258 11.181107 -11.795275 11.181107l0 0c-6.514351 0 -11.795277 -5.005951 -11.795277 -11.181107z" fill-rule="evenodd"/><path fill="#ffffff" d="m58.165443 71.61837l0 0c0 -6.175148 5.2809258 -11.181103 11.795273 -11.181103l0 0c3.1283035 0 6.128479 1.1780052 8.340523 3.2748718c2.2120438 2.096859 3.4547577 4.9408226 3.4547577 7.906231l0 0c0 6.1751556 -5.2809296 11.181107 -11.79528 11.181107l0 0c-6.514347 0 -11.795273 -5.005951 -11.795273 -11.181107z" fill-rule="evenodd"/><path stroke="#ffffff" stroke-width="1.0" stroke-linejoin="round" stroke-linecap="butt" d="m58.165443 71.61837l0 0c0 -6.175148 5.2809258 -11.181103 11.795273 -11.181103l0 0c3.1283035 0 6.128479 1.1780052 8.340523 3.2748718c2.2120438 2.096859 3.4547577 4.9408226 3.4547577 7.906231l0 0c0 6.1751556 -5.2809296 11.181107 -11.79528 11.181107l0 0c-6.514347 0 -11.795273 -5.005951 -11.795273 -11.181107z" fill-rule="evenodd"/><path fill="#ffffff" d="m140.30414 71.61837l0 0c0 -6.175148 5.2809143 -11.181103 11.795273 -11.181103l0 0c3.128296 0 6.128479 1.1780052 8.340515 3.2748718c2.2120514 2.096859 3.4547577 4.9408226 3.4547577 7.906231l0 0c0 6.1751556 -5.2809296 11.181107 -11.795273 11.181107l0 0c-6.5143585 0 -11.795273 -5.005951 -11.795273 -11.181107z" fill-rule="evenodd"/><path stroke="#ffffff" stroke-width="1.0" stroke-linejoin="round" stroke-linecap="butt" d="m140.30414 71.61837l0 0c0 -6.175148 5.2809143 -11.181103 11.795273 -11.181103l0 0c3.128296 0 6.128479 1.1780052 8.340515 3.2748718c2.2120514 2.096859 3.4547577 4.9408226 3.4547577 7.906231l0 0c0 6.1751556 -5.2809296 11.181107 -11.795273 11.181107l0 0c-6.5143585 0 -11.795273 -5.005951 -11.795273 -11.181107z" fill-rule="evenodd"/><path fill="#ffffff" d="m182.86964 71.61837l0 0c0 -6.175148 5.2809296 -11.181103 11.795273 -11.181103l0 0c3.1283112 0 6.128479 1.1780052 8.34053 3.2748718c2.2120361 2.096859 3.4547424 4.9408226 3.4547424 7.906231l0 0c0 6.1751556 -5.2809143 11.181107 -11.795273 11.181107l0 0c-6.5143433 0 -11.795273 -5.005951 -11.795273 -11.181107z" fill-rule="evenodd"/><path stroke="#ffffff" stroke-width="1.0" stroke-linejoin="round" stroke-linecap="butt" d="m182.86964 71.61837l0 0c0 -6.175148 5.2809296 -11.181103 11.795273 -11.181103l0 0c3.1283112 0 6.128479 1.1780052 8.34053 3.2748718c2.2120361 2.096859 3.4547424 4.9408226 3.4547424 7.906231l0 0c0 6.1751556 -5.2809143 11.181107 -11.795273 11.181107l0 0c-6.5143433 0 -11.795273 -5.005951 -11.795273 -11.181107z" fill-rule="evenodd"/><path fill="#ffffff" d="m99.22661 30.309711l0 0c0 -6.175152 5.280922 -11.181103 11.795273 -11.181103l0 0c3.1283035 0 6.128479 1.1780052 8.340523 3.27487c2.2120438 2.0968628 3.45475 4.9408207 3.45475 7.906233l0 0c0 6.175152 -5.280922 11.181103 -11.795273 11.181103l0 0c-6.514351 0 -11.795273 -5.005951 -11.795273 -11.181103z" fill-rule="evenodd"/><path stroke="#ffffff" stroke-width="1.0" stroke-linejoin="round" stroke-linecap="butt" d="m99.22661 30.309711l0 0c0 -6.175152 5.280922 -11.181103 11.795273 -11.181103l0 0c3.1283035 0 6.128479 1.1780052 8.340523 3.27487c2.2120438 2.0968628 3.45475 4.9408207 3.45475 7.906233l0 0c0 6.175152 -5.280922 11.181103 -11.795273 11.181103l0 0c-6.514351 0 -11.795273 -5.005951 -11.795273 -11.181103z" fill-rule="evenodd"/><path fill="#ffffff" d="m58.16117 30.309711l0 0c0 -6.175152 5.2809258 -11.181103 11.79528 -11.181103l0 0c3.128296 0 6.1284714 1.1780052 8.340515 3.27487c2.2120438 2.0968628 3.4547577 4.9408207 3.4547577 7.906233l0 0c0 6.175152 -5.280922 11.181103 -11.795273 11.181103l0 0c-6.5143547 0 -11.79528 -5.005951 -11.79528 -11.181103z" fill-rule="evenodd"/><path stroke="#ffffff" stroke-width="1.0" stroke-linejoin="round" stroke-linecap="butt" d="m58.16117 30.309711l0 0c0 -6.175152 5.2809258 -11.181103 11.79528 -11.181103l0 0c3.128296 0 6.1284714 1.1780052 8.340515 3.27487c2.2120438 2.0968628 3.4547577 4.9408207 3.4547577 7.906233l0 0c0 6.175152 -5.280922 11.181103 -11.795273 11.181103l0 0c-6.5143547 0 -11.79528 -5.005951 -11.79528 -11.181103z" fill-rule="evenodd"/><path fill="#ffffff" d="m140.29987 30.309711l0 0c0 -6.175152 5.2809296 -11.181103 11.795273 -11.181103l0 0c3.128296 0 6.128479 1.1780052 8.340515 3.27487c2.2120514 2.0968628 3.4547577 4.9408207 3.4547577 7.906233l0 0c0 6.175152 -5.2809143 11.181103 -11.795273 11.181103l0 0c-6.5143433 0 -11.795273 -5.005951 -11.795273 -11.181103z" fill-rule="evenodd"/><path stroke="#ffffff" stroke-width="1.0" stroke-linejoin="round" stroke-linecap="butt" d="m140.29987 30.309711l0 0c0 -6.175152 5.2809296 -11.181103 11.795273 -11.181103l0 0c3.128296 0 6.128479 1.1780052 8.340515 3.27487c2.2120514 2.0968628 3.4547577 4.9408207 3.4547577 7.906233l0 0c0 6.175152 -5.2809143 11.181103 -11.795273 11.181103l0 0c-6.5143433 0 -11.795273 -5.005951 -11.795273 -11.181103z" fill-rule="evenodd"/><path fill="#ffffff" d="m101.59634 196.36835l0 0c0 -6.1751556 5.280922 -11.181107 11.795273 -11.181107l0 0c3.1283035 0 6.128479 1.178009 8.340523 3.2748718c2.2120438 2.0968628 3.4547577 4.9408264 3.4547577 7.9062347l0 0c0 6.1751556 -5.2809296 11.181107 -11.79528 11.181107l0 0c-6.514351 0 -11.795273 -5.005951 -11.795273 -11.181107z" fill-rule="evenodd"/><path stroke="#ffffff" stroke-width="1.0" stroke-linejoin="round" stroke-linecap="butt" d="m101.59634 196.36835l0 0c0 -6.1751556 5.280922 -11.181107 11.795273 -11.181107l0 0c3.1283035 0 6.128479 1.178009 8.340523 3.2748718c2.2120438 2.0968628 3.4547577 4.9408264 3.4547577 7.9062347l0 0c0 6.1751556 -5.2809296 11.181107 -11.79528 11.181107l0 0c-6.514351 0 -11.795273 -5.005951 -11.795273 -11.181107z" fill-rule="evenodd"/><path fill="#ffffff" d="m60.530903 196.36835l0 0c0 -6.1751556 5.2809258 -11.181107 11.795277 -11.181107l0 0c3.1283035 0 6.1284714 1.178009 8.340515 3.2748718c2.2120438 2.0968628 3.4547577 4.9408264 3.4547577 7.9062347l0 0c0 6.1751556 -5.280922 11.181107 -11.795273 11.181107l0 0c-6.514351 0 -11.795277 -5.005951 -11.795277 -11.181107z" fill-rule="evenodd"/><path stroke="#ffffff" stroke-width="1.0" stroke-linejoin="round" stroke-linecap="butt" d="m60.530903 196.36835l0 0c0 -6.1751556 5.2809258 -11.181107 11.795277 -11.181107l0 0c3.1283035 0 6.1284714 1.178009 8.340515 3.2748718c2.2120438 2.0968628 3.4547577 4.9408264 3.4547577 7.9062347l0 0c0 6.1751556 -5.280922 11.181107 -11.795273 11.181107l0 0c-6.514351 0 -11.795277 -5.005951 -11.795277 -11.181107z" fill-rule="evenodd"/><path fill="#ffffff" d="m141.25468 196.36835l0 0c0 -6.1751556 5.2809143 -11.181107 11.795273 -11.181107l0 0c3.128296 0 6.128479 1.178009 8.340515 3.2748718c2.2120514 2.0968628 3.4547577 4.9408264 3.4547577 7.9062347l0 0c0 6.1751556 -5.2809296 11.181107 -11.795273 11.181107l0 0c-6.5143585 0 -11.795273 -5.005951 -11.795273 -11.181107z" fill-rule="evenodd"/><path stroke="#ffffff" stroke-width="1.0" stroke-linejoin="round" stroke-linecap="butt" d="m141.25468 196.36835l0 0c0 -6.1751556 5.2809143 -11.181107 11.795273 -11.181107l0 0c3.128296 0 6.128479 1.178009 8.340515 3.2748718c2.2120514 2.0968628 3.4547577 4.9408264 3.4547577 7.9062347l0 0c0 6.1751556 -5.2809296 11.181107 -11.795273 11.181107l0 0c-6.5143585 0 -11.795273 -5.005951 -11.795273 -11.181107z" fill-rule="evenodd"/></g></svg>