<?xml version="1.0" standalone="no"?><!DOCTYPE svg PUBLIC "-//W3C//DTD SVG 1.1//EN" "http://www.w3.org/Graphics/SVG/1.1/DTD/svg11.dtd"><svg t="1712932175192" class="icon" viewBox="0 0 1024 1024" version="1.1" xmlns="http://www.w3.org/2000/svg" p-id="4298" xmlns:xlink="http://www.w3.org/1999/xlink" width="200" height="200"><path d="M704 149.333333H405.333333c-12.8 0-21.333333-8.533333-21.333333-21.333333s8.533333-21.333333 21.333333-21.333333h298.666667c12.8 0 21.333333 8.533333 21.333333 21.333333s-8.533333 21.333333-21.333333 21.333333z" fill="#ffffff" p-id="4299"></path><path d="M384 320h-170.666667c-36.266667 0-64-27.733333-64-64V170.666667c0-36.266667 27.733333-64 64-64h213.333334c12.8 0 21.333333 8.533333 21.333333 21.333333v128c0 36.266667-27.733333 64-64 64z m-170.666667-170.666667c-12.8 0-21.333333 8.533333-21.333333 21.333334v85.333333c0 12.8 8.533333 21.333333 21.333333 21.333333h170.666667c12.8 0 21.333333-8.533333 21.333333-21.333333V149.333333h-192zM490.666667 917.333333H106.666667c-12.8 0-21.333333-8.533333-21.333334-21.333333v-128c0-12.8 8.533333-21.333333 21.333334-21.333333h42.666666c12.8 0 21.333333 8.533333 21.333334 21.333333s-8.533333 21.333333-21.333334 21.333333H128v85.333334h341.333333v-85.333334h-21.333333c-12.8 0-21.333333-8.533333-21.333333-21.333333s8.533333-21.333333 21.333333-21.333333h42.666667c12.8 0 21.333333 8.533333 21.333333 21.333333v128c0 12.8-8.533333 21.333333-21.333333 21.333333z" fill="#ffffff" p-id="4300"></path><path d="M448 789.333333c-10.666667 0-19.2-8.533333-21.333333-19.2l-21.333334-234.666666c0-6.4 2.133333-10.666667 4.266667-14.933334s8.533333-6.4 14.933333-8.533333l277.333334-21.333333c10.666667 0 19.2 6.4 21.333333 14.933333 4.266667 12.8 10.666667 25.6 12.8 32 8.533333 2.133333 40.533333 2.133333 70.4-4.266667h4.266667c12.8 0 21.333333-8.533333 21.333333-21.333333v-85.333333c0-12.8-8.533333-21.333333-21.333333-21.333334H213.333333c-12.8 0-21.333333 8.533333-21.333333 21.333334L170.666667 770.133333c0 12.8-10.666667 21.333333-23.466667 19.2-12.8 0-21.333333-10.666667-19.2-23.466666l21.333333-341.333334c0-34.133333 27.733333-61.866667 64-61.866666h597.333334c36.266667 0 64 27.733333 64 64v85.333333c0 34.133333-27.733333 64-61.866667 64-23.466667 4.266667-76.8 10.666667-98.133333-2.133333-8.533333-6.4-17.066667-19.2-25.6-38.4l-238.933334 19.2 19.2 213.333333c0 10.666667-8.533333 19.2-21.333333 21.333333 2.133333 0 0 0 0 0zM789.333333 704c-12.8 0-21.333333-8.533333-21.333333-21.333333v-42.666667c0-12.8 8.533333-21.333333 21.333333-21.333333s21.333333 8.533333 21.333334 21.333333v42.666667c0 12.8-8.533333 21.333333-21.333334 21.333333zM789.333333 874.666667c-12.8 0-21.333333-8.533333-21.333333-21.333334v-85.333333c0-12.8 8.533333-21.333333 21.333333-21.333333s21.333333 8.533333 21.333334 21.333333v85.333333c0 12.8-8.533333 21.333333-21.333334 21.333334zM872.533333 701.866667c-8.533333 0-17.066667-6.4-21.333333-14.933334l-10.666667-40.533333c-2.133333-10.666667 4.266667-23.466667 14.933334-25.6 10.666667-2.133333 23.466667 4.266667 25.6 14.933333l10.666666 40.533334c2.133333 10.666667-4.266667 23.466667-14.933333 25.6h-4.266667zM917.333333 868.266667c-8.533333 0-17.066667-6.4-21.333333-14.933334l-21.333333-83.2c-2.133333-10.666667 4.266667-23.466667 14.933333-25.6 10.666667-2.133333 23.466667 4.266667 25.6 14.933334l21.333333 83.2c2.133333 10.666667-4.266667 23.466667-14.933333 25.6 0-2.133333-2.133333 0-4.266667 0z" fill="#ffffff" p-id="4301"></path><path d="M693.333333 701.866667h-6.4c-10.666667-2.133333-17.066667-14.933333-14.933333-25.6l10.666667-40.533334c2.133333-10.666667 14.933333-19.2 25.6-14.933333 10.666667 2.133333 17.066667 14.933333 14.933333 25.6l-10.666667 40.533333c-2.133333 8.533333-10.666667 14.933333-19.2 14.933334zM648.533333 868.266667h-6.4c-10.666667-2.133333-17.066667-14.933333-14.933333-25.6l21.333333-83.2c2.133333-10.666667 14.933333-17.066667 25.6-14.933334 10.666667 2.133333 17.066667 14.933333 14.933334 25.6l-21.333334 83.2c0 8.533333-8.533333 14.933333-19.2 14.933334z" fill="#ffffff" p-id="4302"></path></svg>