<?xml version="1.0" standalone="no"?><!DOCTYPE svg PUBLIC "-//W3C//DTD SVG 1.1//EN" "http://www.w3.org/Graphics/SVG/1.1/DTD/svg11.dtd"><svg t="1701654616308" class="icon" viewBox="0 0 1024 1024" version="1.1" xmlns="http://www.w3.org/2000/svg" p-id="4224" xmlns:xlink="http://www.w3.org/1999/xlink" width="200" height="200"><path d="M835.571429 369.142857a178.571429 178.571429 0 0 1-125-50.928571l-346.428572 129.214285a188.928571 188.928571 0 0 1 2.857143 28.571429 176.857143 176.857143 0 0 1-17.142857 75.214286l347.857143 169.785714a177.714286 177.714286 0 1 1-40.714286 112.357143 72.785714 72.785714 0 0 1 1.428571-12.428572l-386.428571-188.357142a174.857143 174.857143 0 0 1-83.571429 21.785714 178.571429 178.571429 0 1 1 127.142858-303.285714l344.285714-128.571429a235.714286 235.714286 0 0 1-2.857143-32.142857 178.571429 178.571429 0 1 1 178.571429 178.785714z" fill="#1890FF" p-id="4225"></path></svg>