<?xml version="1.0" standalone="no"?><!DOCTYPE svg PUBLIC "-//W3C//DTD SVG 1.1//EN" "http://www.w3.org/Graphics/SVG/1.1/DTD/svg11.dtd"><svg t="1692087022912" class="icon" viewBox="0 0 1024 1024" version="1.1" xmlns="http://www.w3.org/2000/svg" p-id="4085" xmlns:xlink="http://www.w3.org/1999/xlink" width="200" height="200"><path d="M99.328 320.512h834.048V38.4H0v282.112h99.328zM49.152 87.552H884.224V271.36H49.152V87.552zM99.328 647.68h265.216c13.824 0 24.576-11.264 24.576-24.576 0-13.824-11.264-24.576-24.576-24.576H99.328c-27.648 0-50.176 0.512-50.176 0.512V414.72h784.896c27.648 0 50.176 0.512 50.176 0.512v133.12c0 13.824 11.264 24.576 24.576 24.576 13.824 0 24.576-11.264 24.576-24.576V365.568s-44.544-0.512-99.328-0.512H0v282.624s44.544-0.512 99.328 0z" fill="#ffffff" p-id="4086"></path><path d="M883.2 641.024c-12.288-81.408-81.92-142.336-164.864-142.336-39.936 0-74.24 9.216-101.376 28.16-24.064 16.384-41.472 40.448-51.2 69.12-12.288-2.048-24.576-1.536-35.328-1.536h-6.144c-68.096 0-123.904 52.224-130.56 118.272-27.136 3.584-52.224 15.36-72.192 33.792-54.784 50.176-58.368 134.656-8.192 189.44 25.088 27.648 60.928 43.008 98.304 43.008 1.536 0 2.56 0 4.096-0.512h429.568c2.56 1.024 5.12 1.024 7.68 1.536 6.656 0 13.824-0.512 20.48-1.536 2.048 0 4.096-0.512 6.144-1.024 36.864-5.632 70.656-23.552 96.256-50.176 30.72-32.256 47.616-74.24 47.616-118.272 0.512-82.944-58.88-153.6-140.288-167.936z m-12.288 288.256h-465.92c-43.008-3.584-77.312-40.448-77.312-83.968v-5.12c3.072-46.592 43.008-81.92 89.6-79.36h3.072c13.824-1.024 24.064-12.8 23.04-26.112v-2.56-6.144c0-45.056 36.352-81.92 81.92-81.92h6.144c14.336 0 30.72 0 38.912 4.608 2.048 1.024 4.096 2.048 6.144 2.56 13.312 3.584 26.624-4.608 30.208-17.92 1.536-2.56 2.56-5.632 3.072-8.704 13.824-62.976 67.072-76.288 109.056-76.288 63.488 0 115.712 50.688 117.248 114.176-0.512 13.312 10.24 25.088 24.064 25.6 64.512 3.072 115.712 56.32 115.2 121.344-0.512 59.904-45.056 111.616-104.448 119.808z" fill="#ffffff" p-id="4087"></path><path d="M258.048 933.376h-158.72-0.512c-27.648 0-49.664 0.512-49.664 0.512v-183.808s22.528-0.512 50.176-0.512h158.72c13.824 0 24.576-11.264 24.576-24.576 0-13.824-11.264-24.576-24.576-24.576H0v283.136s73.216-0.512 99.328-0.512h158.72c13.824 0 24.576-11.264 24.576-24.576 0-13.824-10.752-25.088-24.576-25.088z" fill="#ffffff" p-id="4088"></path><path d="M179.712 156.16h46.592v46.592h-46.592v-46.592z m87.04 0h46.592v46.592h-46.592v-46.592z m87.552 0h46.592v46.592h-46.592v-46.592z m240.64 0h128v46.592h-128v-46.592z" fill="#ffffff" p-id="4089"></path><path d="M179.712 475.136h46.592v46.592h-46.592zM179.712 818.176h46.592v46.592h-46.592zM266.752 475.136h46.592v46.592h-46.592zM354.304 475.136h46.592v46.592h-46.592z" fill="#ffffff" p-id="4090"></path></svg>