<?xml version="1.0" standalone="no"?><!DOCTYPE svg PUBLIC "-//W3C//DTD SVG 1.1//EN" "http://www.w3.org/Graphics/SVG/1.1/DTD/svg11.dtd"><svg t="1724751724405" class="icon" viewBox="0 0 1024 1024" version="1.1" xmlns="http://www.w3.org/2000/svg" p-id="4285" xmlns:xlink="http://www.w3.org/1999/xlink" width="200" height="200"><path d="M124.30469 773.231695a302.272192 302.272192 0 0 0 135.723331 153.718161l15.378641 7.848567 3.275924 1.637962 0.750732 0.454989-3.730913-1.933705 5.801115 3.275924 0.318492 0.159246 1.774459 1.251221c5.55087 4.254151 10.146263 9.645775 13.422187 15.83363 1.774459 3.298673 3.139427 6.824841 4.026656 10.464756l0.386741 1.70621 0.295743 1.797208c0.40949 2.320446 0.636985 4.663641 0.682484 7.006836v0.682484l-0.090998 2.980181-0.159246 1.637961 0.227494-4.618142-0.454989 6.278854-0.727983 4.322399a46.477165 46.477165 0 0 1-3.275924 9.327282l-0.454989 0.909979a46.545413 46.545413 0 0 1-1.364968 2.525191l1.819957-3.412421a46.909405 46.909405 0 0 1-33.942207 25.957144l-5.505372 0.682484H46.979246A46.636411 46.636411 0 0 1 0.001593 977.430927a46.636411 46.636411 0 0 1 46.226921-47.045901l68.839892 0.159246a394.589536 394.589536 0 0 1-77.416442-122.89263 46.704659 46.704659 0 0 1 6.256104-46.795658 46.568163 46.568163 0 0 1 80.396622 12.44396v-0.068249zM464.659493 376.276214a46.636411 46.636411 0 0 1 46.977653 46.295169 46.636411 46.636411 0 0 1-46.22692 47.045902h-54.371231v460.744991H929.544888V469.640034h-93.227323a46.636411 46.636411 0 0 1-46.590912-45.908428v-0.750732c0-25.547653 20.429023-46.295169 45.862929-46.68191h140.568968c25.479405 0 46.226921 20.474522 46.590912 45.862929v554.905043a46.590912 46.590912 0 0 1-45.771931 46.636411H364.425334a46.636411 46.636411 0 0 1-46.590912-45.81743V422.980874a46.636411 46.636411 0 0 1 45.862929-46.68191h100.962142zM658.712462 0c25.411157 0 46.226921 20.54277 46.590912 45.908428V600.813471a46.636411 46.636411 0 0 1-45.862929 46.68191H558.501052a46.727409 46.727409 0 0 1-0.750732-93.34107h54.37123V93.409319H93.592908v460.744992h93.204573a46.636411 46.636411 0 0 1 46.636411 45.931177v0.727983a46.590912 46.590912 0 0 1-45.885678 46.68191H46.979246a46.636411 46.636411 0 0 1-46.590912-45.840179V46.750158C0.388334 21.202505 20.817357 0.454989 46.160265 0.068248h612.529448V0z m63.81226 36.057908c0.227495-0.955478 0.454989-1.888206 0.750733-2.820934l1.342218-3.890159 1.182973-2.616189 0.386741-0.818981 0.750732-1.364968 0.363992-0.727983 0.363991-0.750733a46.613662 46.613662 0 0 1 32.076751-22.317229l5.459873-0.591486h0.568736l210.978574-0.090998A46.636411 46.636411 0 0 1 1023.727689 46.363417a46.636411 46.636411 0 0 1-46.22692 47.045902l-68.839893-0.159246a394.589536 394.589536 0 0 1 77.416442 122.983628 46.613662 46.613662 0 1 1-86.720975 34.351698 302.272192 302.272192 0 0 0-135.74608-153.672662l-15.355892-7.848567-0.295743-0.136496-6.051358-3.503419 2.843683 1.774459-0.909978-0.523238a46.568163 46.568163 0 0 1-19.382548-22.976963l-0.727983-2.252198a41.10829 41.10829 0 0 1-2.388694-14.10467v-3.594416l0.227495-1.706211-0.090998 1.637962 0.159246-2.388694 0.068248-0.818981v0.591486l0.750733-5.004883h0.068248z" p-id="4286" fill="#ffffff"></path></svg>