<?xml version="1.0" standalone="no"?><!DOCTYPE svg PUBLIC "-//W3C//DTD SVG 1.1//EN" "http://www.w3.org/Graphics/SVG/1.1/DTD/svg11.dtd"><svg t="1701053055044" class="icon" viewBox="0 0 1024 1024" version="1.1" xmlns="http://www.w3.org/2000/svg" p-id="4046" xmlns:xlink="http://www.w3.org/1999/xlink" width="200" height="200"><path d="M766.89392 637.297248c-63.341139 0-118.971737 31.160782-153.764757 78.571051L383.406018 648.767475c0.19117-3.887132 1.147023-7.519371 1.147022-11.470227 0-43.268243-14.911294-82.649353-39.126217-114.702264l155.421568-155.421567A191.17044 191.17044 0 1 0 384.55304 191.232889c0 32.371528 8.79384 62.385287 22.940453 89.021701L236.332226 451.415857A186.900967 186.900967 0 0 0 193.3826 446.126808a191.17044 191.17044 0 0 0 0 382.34088c55.439428 0 104.888848-23.960028 139.809315-61.620605l243.487417 71.115404A190.724375 190.724375 0 0 0 958.064359 828.467688a191.17044 191.17044 0 0 0-191.170439-191.17044zM575.72348 127.509409a63.72348 63.72348 0 1 1 0 127.44696 63.72348 63.72348 0 0 1 0-127.44696z m-382.34088 573.511319a63.72348 63.72348 0 1 1 0-127.44696 63.72348 63.72348 0 1 1 0 127.44696z m573.51132 191.17044a63.72348 63.72348 0 1 1 0-127.44696 63.72348 63.72348 0 1 1 0 127.44696z" p-id="4047"></path></svg>