<?xml version="1.0" standalone="no"?><!DOCTYPE svg PUBLIC "-//W3C//DTD SVG 1.1//EN" "http://www.w3.org/Graphics/SVG/1.1/DTD/svg11.dtd"><svg t="1708582901402" class="icon" viewBox="0 0 1024 1024" version="1.1" xmlns="http://www.w3.org/2000/svg" p-id="4363" xmlns:xlink="http://www.w3.org/1999/xlink" width="200" height="200"><path d="M289.850182 60.881455L258.509576 280.389818 172.121212 194.063515a465.454545 465.454545 0 0 0 326.811152 783.173818l13.156848 0.186182v31.030303A496.453818 496.453818 0 0 1 150.182788 172.094061L70.341818 92.222061l219.508364-31.340606zM512.089212 15.515152a496.484848 496.484848 0 0 1 361.844364 836.421818l79.90303 79.872-219.539394 31.340606 31.340606-219.508364 86.357334 86.326303a465.454545 465.454545 0 0 0-326.749091-783.235879l-13.156849-0.186181v-31.030303z m275.518061 793.941333l-16.756364 117.139394 117.139394-16.756364-100.38303-100.38303zM527.604364 198.718061v70.966303c45.180121 2.699636 91.787636 13.591273 122.507636 28.454788l6.857697 3.537454 13.591273 7.447273-14.925576 27.213576-13.622303-7.447273c-25.755152-14.180848-70.749091-25.258667-114.408727-28.113455v189.843394l1.303272 0.465455 16.601212 5.833697c2.668606 0.930909 5.275152 1.923879 7.819637 2.885818l14.615273 5.709576c62.929455 25.755152 87.07103 51.665455 87.07103 103.237818 0 70.066424-43.194182 110.871273-114.936243 121.638788-4.06497 0.620606-8.22303 1.117091-12.443151 1.551515l-0.03103 93.308121h-31.030303V733.246061c-44.993939-0.310303-95.604364-9.619394-143.794425-25.724122l-12.039757-4.189091-14.584243-5.275151 10.550303-29.168485 14.584243 5.275152c48.562424 17.532121 100.507152 27.710061 145.314909 28.051394l-0.03103-189.253819-4.592485-1.551515c-96.442182-33.140364-134.795636-63.394909-134.795637-133.864727 0-66.870303 50.082909-102.213818 127.813819-107.768242 3.785697-0.248242 7.664485-0.465455 11.574303-0.589576v-70.438788h31.030303z m0 324.763151l0.06206 177.245091c2.637576-0.310303 5.275152-0.620606 7.819637-1.024 57.716364-8.657455 88.498424-37.763879 88.498424-90.918788 0-35.002182-17.501091-53.992727-68.732121-74.907151l-13.498182-5.275152-14.149818-5.12z m-31.030303-223.232a255.286303 255.286303 0 0 0-9.371152 0.496485c-63.425939 4.530424-98.986667 29.602909-98.986667 76.8 0 43.566545 20.48 67.025455 76.303516 90.422303l14.056727 5.616485c5.678545 2.172121 11.667394 4.344242 17.997576 6.578424V300.249212z m-243.277576-202.845091l-117.170424 16.756364 100.41406 100.41406 16.756364-117.170424z" fill="#000000" p-id="4364"></path></svg>