<svg version="1.1" viewBox="0.0 0.0 864.0 1536.0" fill="none" stroke="none" stroke-linecap="square" stroke-miterlimit="10" xmlns:xlink="http://www.w3.org/1999/xlink" xmlns="http://www.w3.org/2000/svg"><clipPath id="g2cd11699117_0_233.0"><path d="m0 0l864.0 0l0 1536.0l-864.0 0l0 -1536.0z" clip-rule="nonzero"/></clipPath><g clip-path="url(#g2cd11699117_0_233.0)"><path fill="#212121" d="m0 0l864.0 0l0 1536.0l-864.0 0z" fill-rule="evenodd"/><path fill="#000000" fill-opacity="0.0" d="m301.9918 257.62567l658.07874 0l0 82.236206l-658.07874 0z" fill-rule="evenodd"/><path fill="#4bec73" d="m330.2418 279.24567l6.34375 0l14.265625 29.5l-6.28125 0l-2.359375 -4.96875l-17.234375 0l-2.28125 4.96875l-6.3125 0l13.859375 -29.5zm9.609375 19.609375l-6.375 -13.40625l-6.21875 13.40625l12.59375 0zm17.321228 -8.1875l-3.8125 0l0 -4.1875l3.8125 0q0 -2.265625 0.640625 -4.03125q0.640625 -1.765625 1.859375 -2.984375q1.21875 -1.21875 2.96875 -1.859375q1.75 -0.640625 3.9375 -0.640625q1.53125 0 3.0 0.296875q1.46875 0.28125 2.609375 0.828125l-1.984375 4.703125q-0.453125 -0.265625 -1.28125 -0.484375q-0.8125 -0.234375 -1.796875 -0.234375q-1.921875 0 -3.109375 1.09375q-1.171875 1.078125 -1.25 3.3125l7.03125 0l0 4.1875l-7.03125 0l0 18.078125l-5.59375 0l0 -18.078125zm19.365875 0l-3.8125 0l0 -4.1875l3.8125 0q0 -2.265625 0.640625 -4.03125q0.640625 -1.765625 1.859375 -2.984375q1.21875 -1.21875 2.96875 -1.859375q1.75 -0.640625 3.9375 -0.640625q1.53125 0 3.0 0.296875q1.46875 0.28125 2.609375 0.828125l-1.984375 4.703125q-0.453125 -0.265625 -1.28125 -0.484375q-0.8125 -0.234375 -1.796875 -0.234375q-1.921875 0 -3.109375 1.09375q-1.171875 1.078125 -1.25 3.3125l7.03125 0l0 4.1875l-7.03125 0l0 18.078125l-5.59375 0l0 -18.078125zm19.8815 -7.234375q-0.828125 0 -1.5 -0.234375q-0.671875 -0.234375 -1.140625 -0.640625q-0.46875 -0.40625 -0.734375 -0.9375q-0.25 -0.546875 -0.25 -1.15625q0 -0.609375 0.25 -1.140625q0.265625 -0.546875 0.734375 -0.9375q0.46875 -0.40625 1.140625 -0.640625q0.671875 -0.234375 1.5 -0.234375q0.84375 0 1.515625 0.234375q0.671875 0.234375 1.140625 0.640625q0.46875 0.390625 0.71875 0.9375q0.265625 0.53125 0.265625 1.140625q0 0.609375 -0.265625 1.15625q-0.25 0.53125 -0.71875 0.9375q-0.46875 0.40625 -1.140625 0.640625q-0.671875 0.234375 -1.515625 0.234375zm-2.796875 3.046875l5.59375 0l0 22.265625l-5.59375 0l0 -22.265625zm12.891693 -9.046875l5.59375 0l0 31.3125l-5.59375 0l0 -31.3125zm15.688599 6.0q-0.828125 0 -1.5 -0.234375q-0.671875 -0.234375 -1.140625 -0.640625q-0.46875 -0.40625 -0.734375 -0.9375q-0.25 -0.546875 -0.25 -1.15625q0 -0.609375 0.25 -1.140625q0.265625 -0.546875 0.734375 -0.9375q0.46875 -0.40625 1.140625 -0.640625q0.671875 -0.234375 1.5 -0.234375q0.84375 0 1.515625 0.234375q0.671875 0.234375 1.140625 0.640625q0.46875 0.390625 0.71875 0.9375q0.265625 0.53125 0.265625 1.140625q0 0.609375 -0.265625 1.15625q-0.25 0.53125 -0.71875 0.9375q-0.46875 0.40625 -1.140625 0.640625q-0.671875 0.234375 -1.515625 0.234375zm-2.796875 3.046875l5.59375 0l0 22.265625l-5.59375 0l0 -22.265625zm11.688568 15.25q0 -1.609375 0.6875 -2.921875q0.703125 -1.328125 2.09375 -2.28125q1.40625 -0.953125 3.484375 -1.46875q2.09375 -0.53125 4.875 -0.53125q2.046875 0 4.3125 0.3125q2.28125 0.296875 4.703125 0.921875q-0.09375 -1.0625 -0.640625 -1.953125q-0.546875 -0.90625 -1.53125 -1.546875q-0.96875 -0.65625 -2.34375 -1.015625q-1.359375 -0.359375 -3.09375 -0.359375q-0.9375 0 -2.078125 0.125q-1.125 0.109375 -2.34375 0.34375q-1.203125 0.21875 -2.390625 0.5625q-1.171875 0.328125 -2.1875 0.796875l-1.703125 -4.578125q1.265625 -0.453125 2.703125 -0.828125q1.453125 -0.375 2.953125 -0.640625q1.515625 -0.28125 3.03125 -0.4375q1.515625 -0.15625 2.921875 -0.15625q6.25 0 9.28125 3.1875q3.046875 3.1875 3.046875 9.78125l0 9.703125l-5.59375 0l0 -2.09375q-0.859375 0.515625 -1.890625 0.96875q-1.03125 0.453125 -2.234375 0.796875q-1.203125 0.328125 -2.59375 0.515625q-1.390625 0.203125 -2.9375 0.203125q-2.609375 0 -4.578125 -0.5625q-1.96875 -0.5625 -3.296875 -1.5625q-1.3125 -1.0 -1.984375 -2.34375q-0.671875 -1.359375 -0.671875 -2.9375zm5.890625 -0.1875q0 0.546875 0.28125 1.046875q0.28125 0.5 0.90625 0.890625q0.625 0.375 1.59375 0.609375q0.96875 0.234375 2.34375 0.234375q1.484375 0 2.859375 -0.25q1.375 -0.265625 2.5625 -0.703125q1.1875 -0.4375 2.140625 -1.0q0.96875 -0.578125 1.609375 -1.171875l0 -0.984375q-1.28125 -0.359375 -2.53125 -0.59375q-1.25 -0.25 -2.40625 -0.390625q-1.140625 -0.15625 -2.15625 -0.203125q-1.0 -0.0625 -1.75 -0.0625q-1.5625 0 -2.609375 0.21875q-1.03125 0.203125 -1.671875 0.5625q-0.640625 0.34375 -0.90625 0.8125q-0.265625 0.46875 -0.265625 0.984375zm30.637848 -10.875l-5.390625 0l0 -4.1875l5.390625 0l0 -6.9375l5.578125 0l0 6.9375l5.375 0l0 4.1875l-5.375 0l0 18.078125l-5.578125 0l0 -18.078125zm14.8685 6.859375q0 -2.265625 0.921875 -4.328125q0.921875 -2.0625 2.65625 -3.640625q1.734375 -1.59375 4.25 -2.53125q2.53125 -0.953125 5.734375 -0.953125q3.203125 0 5.75 0.953125q2.5625 0.953125 4.34375 2.625q1.78125 1.65625 2.734375 3.90625q0.953125 2.234375 0.953125 4.8125q0 0.3125 -0.015625 0.6875q0 0.359375 -0.03125 0.671875l-21.078125 0q0.359375 1.0 1.15625 1.828125q0.8125 0.828125 2.015625 1.4375q1.21875 0.59375 2.796875 0.921875q1.59375 0.328125 3.515625 0.328125q1.921875 0 3.828125 -0.390625q1.90625 -0.40625 3.640625 -1.03125l1.890625 4.265625q-1.09375 0.5 -2.21875 0.890625q-1.125 0.390625 -2.34375 0.640625q-1.21875 0.25 -2.546875 0.375q-1.328125 0.140625 -2.796875 0.140625q-3.765625 0 -6.59375 -0.90625q-2.828125 -0.90625 -4.734375 -2.46875q-1.90625 -1.5625 -2.875 -3.671875q-0.953125 -2.125 -0.953125 -4.5625zm21.421875 -2.15625q-0.296875 -0.9375 -0.9375 -1.734375q-0.625 -0.796875 -1.578125 -1.390625q-0.9375 -0.59375 -2.1875 -0.9375q-1.25 -0.34375 -2.734375 -0.34375q-1.59375 0 -2.890625 0.359375q-1.296875 0.359375 -2.28125 0.96875q-0.984375 0.59375 -1.640625 1.390625q-0.640625 0.796875 -0.953125 1.6875l15.203125 0zm25.458527 -16.125l15.5625 0q3.390625 0 5.875 0.734375q2.5 0.734375 4.140625 2.125q1.640625 1.390625 2.4375 3.390625q0.8125 2.0 0.8125 4.5q0 2.359375 -0.796875 4.375q-0.796875 2.0 -2.4375 3.46875q-1.625 1.453125 -4.125 2.28125q-2.484375 0.8125 -5.875 0.8125l-9.609375 -0.015625l0 7.828125l-5.984375 0l0 -29.5zm15.703125 16.5q1.703125 0 2.96875 -0.40625q1.28125 -0.40625 2.140625 -1.15625q0.859375 -0.75 1.28125 -1.8125q0.421875 -1.0625 0.421875 -2.375q0 -2.609375 -1.703125 -4.078125q-1.703125 -1.46875 -5.109375 -1.46875l-9.71875 0l0 11.296875l9.71875 0zm18.946838 -9.265625l5.59375 0l0 3.203125q1.84375 -1.375 3.90625 -2.375q2.0625 -1.0 4.09375 -1.53125l1.640625 5.109375q-3.21875 0.328125 -5.671875 1.453125q-2.4375 1.125 -3.96875 3.15625l0 13.25l-5.59375 0l0 -22.265625zm18.05664 11.125q0 -2.390625 0.96875 -4.484375q0.96875 -2.09375 2.765625 -3.65625q1.8125 -1.578125 4.359375 -2.484375q2.5625 -0.90625 5.75 -0.90625q3.203125 0 5.75 0.90625q2.5625 0.90625 4.359375 2.484375q1.8125 1.5625 2.78125 3.65625q0.96875 2.09375 0.96875 4.484375q0 2.40625 -0.96875 4.5q-0.96875 2.09375 -2.78125 3.65625q-1.796875 1.5625 -4.359375 2.46875q-2.546875 0.90625 -5.75 0.90625q-3.1875 0 -5.75 -0.90625q-2.546875 -0.90625 -4.359375 -2.46875q-1.796875 -1.5625 -2.765625 -3.65625q-0.96875 -2.09375 -0.96875 -4.5zm5.859375 0q0 1.34375 0.53125 2.546875q0.546875 1.1875 1.578125 2.109375q1.03125 0.921875 2.515625 1.453125q1.484375 0.53125 3.359375 0.53125q1.890625 0 3.375 -0.53125q1.484375 -0.53125 2.515625 -1.453125q1.03125 -0.921875 1.5625 -2.109375q0.53125 -1.203125 0.53125 -2.546875q0 -1.328125 -0.53125 -2.53125q-0.53125 -1.21875 -1.5625 -2.125q-1.03125 -0.921875 -2.515625 -1.453125q-1.484375 -0.546875 -3.375 -0.546875q-1.875 0 -3.359375 0.546875q-1.484375 0.53125 -2.515625 1.453125q-1.03125 0.90625 -1.578125 2.125q-0.53125 1.203125 -0.53125 2.53125zm30.980957 14.921875q1.0625 0.375 2.15625 0.625q1.09375 0.25 2.109375 0.40625q1.03125 0.171875 1.96875 0.234375q0.953125 0.0625 1.6875 0.0625q2.234375 0 3.875 -0.53125q1.65625 -0.53125 2.765625 -1.4375q1.109375 -0.90625 1.65625 -2.109375q0.546875 -1.203125 0.546875 -2.546875l0 -0.953125q-0.71875 0.484375 -1.6875 0.9375q-0.953125 0.453125 -2.109375 0.796875q-1.15625 0.34375 -2.453125 0.546875q-1.28125 0.203125 -2.671875 0.203125q-2.734375 0 -5.0625 -0.8125q-2.3125 -0.828125 -4.015625 -2.3125q-1.6875 -1.484375 -2.640625 -3.546875q-0.953125 -2.078125 -0.953125 -4.609375q0 -2.59375 1.0 -4.6875q1.0 -2.109375 2.765625 -3.59375q1.765625 -1.5 4.171875 -2.3125q2.421875 -0.8125 5.25 -0.8125q1.203125 0 2.390625 0.15625q1.203125 0.15625 2.28125 0.421875q1.09375 0.25 2.046875 0.625q0.953125 0.359375 1.6875 0.796875l0 -1.59375l5.578125 0l0 19.71875q0 3.03125 -0.921875 5.375q-0.921875 2.34375 -2.703125 3.9375q-1.78125 1.59375 -4.4375 2.40625q-2.640625 0.828125 -6.046875 0.828125q-1.234375 0 -2.5625 -0.109375q-1.3125 -0.09375 -2.640625 -0.296875q-1.328125 -0.1875 -2.625 -0.46875q-1.296875 -0.265625 -2.484375 -0.625l2.078125 -4.71875zm1.03125 -15.109375q0 1.34375 0.53125 2.53125q0.546875 1.171875 1.546875 2.046875q1.0 0.875 2.421875 1.375q1.421875 0.5 3.1875 0.5q1.15625 0 2.296875 -0.203125q1.140625 -0.21875 2.1875 -0.609375q1.046875 -0.40625 1.953125 -0.96875q0.921875 -0.578125 1.609375 -1.265625l0 -7.34375q-0.859375 -0.6875 -1.796875 -1.15625q-0.9375 -0.46875 -1.921875 -0.765625q-0.984375 -0.3125 -1.984375 -0.453125q-1.0 -0.140625 -1.953125 -0.140625q-1.921875 0 -3.421875 0.515625q-1.5 0.5 -2.53125 1.390625q-1.03125 0.875 -1.578125 2.046875q-0.546875 1.15625 -0.546875 2.5zm27.669739 -10.9375l5.59375 0l0 3.203125q1.84375 -1.375 3.90625 -2.375q2.0625 -1.0 4.09375 -1.53125l1.640625 5.109375q-3.21875 0.328125 -5.671875 1.453125q-2.4375 1.125 -3.96875 3.15625l0 13.25l-5.59375 0l0 -22.265625zm18.33783 15.25q0 -1.609375 0.6875 -2.921875q0.703125 -1.328125 2.09375 -2.28125q1.40625 -0.953125 3.484375 -1.46875q2.09375 -0.53125 4.875 -0.53125q2.046875 0 4.3125 0.3125q2.28125 0.296875 4.703125 0.921875q-0.09375 -1.0625 -0.640625 -1.953125q-0.546875 -0.90625 -1.53125 -1.546875q-0.96875 -0.65625 -2.34375 -1.015625q-1.359375 -0.359375 -3.09375 -0.359375q-0.9375 0 -2.078125 0.125q-1.125 0.109375 -2.34375 0.34375q-1.203125 0.21875 -2.390625 0.5625q-1.171875 0.328125 -2.1875 0.796875l-1.703125 -4.578125q1.265625 -0.453125 2.703125 -0.828125q1.453125 -0.375 2.953125 -0.640625q1.515625 -0.28125 3.03125 -0.4375q1.515625 -0.15625 2.921875 -0.15625q6.25 0 9.28125 3.1875q3.046875 3.1875 3.046875 9.78125l0 9.703125l-5.59375 0l0 -2.09375q-0.859375 0.515625 -1.890625 0.96875q-1.03125 0.453125 -2.234375 0.796875q-1.203125 0.328125 -2.59375 0.515625q-1.390625 0.203125 -2.9375 0.203125q-2.609375 0 -4.578125 -0.5625q-1.96875 -0.5625 -3.296875 -1.5625q-1.3125 -1.0 -1.984375 -2.34375q-0.671875 -1.359375 -0.671875 -2.9375zm5.890625 -0.1875q0 0.546875 0.28125 1.046875q0.28125 0.5 0.90625 0.890625q0.625 0.375 1.59375 0.609375q0.96875 0.234375 2.34375 0.234375q1.484375 0 2.859375 -0.25q1.375 -0.265625 2.5625 -0.703125q1.1875 -0.4375 2.140625 -1.0q0.96875 -0.578125 1.609375 -1.171875l0 -0.984375q-1.28125 -0.359375 -2.53125 -0.59375q-1.25 -0.25 -2.40625 -0.390625q-1.140625 -0.15625 -2.15625 -0.203125q-1.0 -0.0625 -1.75 -0.0625q-1.5625 0 -2.609375 0.21875q-1.03125 0.203125 -1.671875 0.5625q-0.640625 0.34375 -0.90625 0.8125q-0.265625 0.46875 -0.265625 0.984375zm27.419067 -15.0625l5.59375 0l0 1.875q2.09375 -1.28125 4.078125 -1.78125q2.0 -0.5 3.90625 -0.5q2.65625 0 4.875 0.859375q2.234375 0.84375 3.828125 2.5625q1.21875 -0.953125 2.40625 -1.59375q1.1875 -0.65625 2.375 -1.0625q1.203125 -0.40625 2.421875 -0.578125q1.234375 -0.1875 2.53125 -0.1875q2.734375 0 4.953125 0.75q2.234375 0.75 3.8125 2.21875q1.578125 1.46875 2.4375 3.671875q0.859375 2.203125 0.859375 5.078125l0 10.953125l-5.578125 0l0 -10.046875q0 -1.828125 -0.515625 -3.265625q-0.515625 -1.453125 -1.453125 -2.4375q-0.9375 -1.0 -2.234375 -1.515625q-1.28125 -0.515625 -2.828125 -0.515625q-0.84375 0 -1.734375 0.171875q-0.890625 0.15625 -1.734375 0.5q-0.84375 0.328125 -1.578125 0.859375q-0.734375 0.515625 -1.28125 1.203125l0 15.046875l-5.5625 0l0 -10.046875q0 -1.828125 -0.53125 -3.265625q-0.515625 -1.453125 -1.453125 -2.4375q-0.921875 -1.0 -2.234375 -1.515625q-1.3125 -0.515625 -2.875 -0.515625q-0.96875 0 -1.9375 0.203125q-0.96875 0.1875 -1.875 0.546875q-0.890625 0.359375 -1.671875 0.875q-0.78125 0.515625 -1.40625 1.15625l0 15.0l-5.59375 0l0 -22.265625z" fill-rule="nonzero"/><path fill="#4bec73" d="m177.5574 300.04413l0 0c0 -2.5306702 1.849884 -4.5821533 4.131851 -4.5821533l0 0c1.0958252 0 2.1467743 0.48275757 2.921646 1.3420715c0.7748718 0.85931396 1.2101898 2.0248108 1.2101898 3.2400818l0 0c0 2.5306702 -1.849884 4.5821533 -4.131836 4.5821533l0 0c-2.2819672 0 -4.131851 -2.0514832 -4.131851 -4.5821533z" fill-rule="evenodd"/><path stroke="#595959" stroke-width="1.0" stroke-linejoin="round" stroke-linecap="butt" d="m177.5574 300.04413l0 0c0 -2.5306702 1.849884 -4.5821533 4.131851 -4.5821533l0 0c1.0958252 0 2.1467743 0.48275757 2.921646 1.3420715c0.7748718 0.85931396 1.2101898 2.0248108 1.2101898 3.2400818l0 0c0 2.5306702 -1.849884 4.5821533 -4.131836 4.5821533l0 0c-2.2819672 0 -4.131851 -2.0514832 -4.131851 -4.5821533z" fill-rule="evenodd"/><path fill="#4bec73" d="m157.49678 300.04413l0 0c0 -2.5306702 1.8498993 -4.5821533 4.131851 -4.5821533l0 0c1.0958405 0 2.1467896 0.48275757 2.9216614 1.3420715c0.7748718 0.85931396 1.2101898 2.0248108 1.2101898 3.2400818l0 0c0 2.5306702 -1.8498993 4.5821533 -4.131851 4.5821533l0 0c-2.281952 0 -4.131851 -2.0514832 -4.131851 -4.5821533z" fill-rule="evenodd"/><path stroke="#595959" stroke-width="1.0" stroke-linejoin="round" stroke-linecap="butt" d="m157.49678 300.04413l0 0c0 -2.5306702 1.8498993 -4.5821533 4.131851 -4.5821533l0 0c1.0958405 0 2.1467896 0.48275757 2.9216614 1.3420715c0.7748718 0.85931396 1.2101898 2.0248108 1.2101898 3.2400818l0 0c0 2.5306702 -1.8498993 4.5821533 -4.131851 4.5821533l0 0c-2.281952 0 -4.131851 -2.0514832 -4.131851 -4.5821533z" fill-rule="evenodd"/><path fill="#4bec73" d="m197.61801 300.04413l0 0c0 -2.5306702 1.8498993 -4.5821533 4.131851 -4.5821533l0 0c1.0958405 0 2.1467896 0.48275757 2.9216614 1.3420715c0.7748718 0.85931396 1.2101898 2.0248108 1.2101898 3.2400818l0 0c0 2.5306702 -1.8498993 4.5821533 -4.131851 4.5821533l0 0c-2.281952 0 -4.131851 -2.0514832 -4.131851 -4.5821533z" fill-rule="evenodd"/><path stroke="#595959" stroke-width="1.0" stroke-linejoin="round" stroke-linecap="butt" d="m197.61801 300.04413l0 0c0 -2.5306702 1.8498993 -4.5821533 4.131851 -4.5821533l0 0c1.0958405 0 2.1467896 0.48275757 2.9216614 1.3420715c0.7748718 0.85931396 1.2101898 2.0248108 1.2101898 3.2400818l0 0c0 2.5306702 -1.8498993 4.5821533 -4.131851 4.5821533l0 0c-2.281952 0 -4.131851 -2.0514832 -4.131851 -4.5821533z" fill-rule="evenodd"/><path fill="#4bec73" d="m144.99748 316.65994l0 0c0 -2.5306702 1.849884 -4.582184 4.131851 -4.582184l0 0c1.0958252 0 2.1467896 0.48275757 2.9216614 1.342102c0.7748718 0.85931396 1.2101898 2.0248108 1.2101898 3.2400818l0 0c0 2.5306396 -1.8498993 4.5821533 -4.131851 4.5821533l0 0c-2.2819672 0 -4.131851 -2.0515137 -4.131851 -4.5821533z" fill-rule="evenodd"/><path stroke="#595959" stroke-width="1.0" stroke-linejoin="round" stroke-linecap="butt" d="m144.99748 316.65994l0 0c0 -2.5306702 1.849884 -4.582184 4.131851 -4.582184l0 0c1.0958252 0 2.1467896 0.48275757 2.9216614 1.342102c0.7748718 0.85931396 1.2101898 2.0248108 1.2101898 3.2400818l0 0c0 2.5306396 -1.8498993 4.5821533 -4.131851 4.5821533l0 0c-2.2819672 0 -4.131851 -2.0515137 -4.131851 -4.5821533z" fill-rule="evenodd"/><path fill="#4bec73" d="m177.30827 318.77692l0 0c0 -2.5306702 1.849884 -4.582184 4.131851 -4.582184l0 0c1.0958252 0 2.1467896 0.4827881 2.9216614 1.342102c0.7748718 0.85931396 1.2101898 2.0248108 1.2101898 3.2400818l0 0c0 2.5306396 -1.8498993 4.5821533 -4.131851 4.5821533l0 0c-2.2819672 0 -4.131851 -2.0515137 -4.131851 -4.5821533z" fill-rule="evenodd"/><path stroke="#595959" stroke-width="1.0" stroke-linejoin="round" stroke-linecap="butt" d="m177.30827 318.77692l0 0c0 -2.5306702 1.849884 -4.582184 4.131851 -4.582184l0 0c1.0958252 0 2.1467896 0.4827881 2.9216614 1.342102c0.7748718 0.85931396 1.2101898 2.0248108 1.2101898 3.2400818l0 0c0 2.5306396 -1.8498993 4.5821533 -4.131851 4.5821533l0 0c-2.2819672 0 -4.131851 -2.0515137 -4.131851 -4.5821533z" fill-rule="evenodd"/><path fill="#4bec73" d="m161.32834 316.65994l0 0c0 -2.5306702 1.8498993 -4.582184 4.131851 -4.582184l0 0c1.0958405 0 2.1467896 0.48275757 2.9216614 1.342102c0.7748718 0.85931396 1.2101898 2.0248108 1.2101898 3.2400818l0 0c0 2.5306396 -1.849884 4.5821533 -4.131851 4.5821533l0 0c-2.281952 0 -4.131851 -2.0515137 -4.131851 -4.5821533z" fill-rule="evenodd"/><path stroke="#595959" stroke-width="1.0" stroke-linejoin="round" stroke-linecap="butt" d="m161.32834 316.65994l0 0c0 -2.5306702 1.8498993 -4.582184 4.131851 -4.582184l0 0c1.0958405 0 2.1467896 0.48275757 2.9216614 1.342102c0.7748718 0.85931396 1.2101898 2.0248108 1.2101898 3.2400818l0 0c0 2.5306396 -1.849884 4.5821533 -4.131851 4.5821533l0 0c-2.281952 0 -4.131851 -2.0515137 -4.131851 -4.5821533z" fill-rule="evenodd"/><path fill="#4bec73" d="m211.63107 316.65994l0 0c0 -2.5306702 1.8498993 -4.582184 4.131851 -4.582184l0 0c1.0958405 0 2.1467896 0.48275757 2.9216614 1.342102c0.7748718 0.85931396 1.2101898 2.0248108 1.2101898 3.2400818l0 0c0 2.5306396 -1.8498993 4.5821533 -4.131851 4.5821533l0 0c-2.281952 0 -4.131851 -2.0515137 -4.131851 -4.5821533z" fill-rule="evenodd"/><path stroke="#595959" stroke-width="1.0" stroke-linejoin="round" stroke-linecap="butt" d="m211.63107 316.65994l0 0c0 -2.5306702 1.8498993 -4.582184 4.131851 -4.582184l0 0c1.0958405 0 2.1467896 0.48275757 2.9216614 1.342102c0.7748718 0.85931396 1.2101898 2.0248108 1.2101898 3.2400818l0 0c0 2.5306396 -1.8498993 4.5821533 -4.131851 4.5821533l0 0c-2.281952 0 -4.131851 -2.0515137 -4.131851 -4.5821533z" fill-rule="evenodd"/><path fill="#4bec73" d="m128.43748 331.08972l0 0c0 -2.5306396 1.849884 -4.5821533 4.131851 -4.5821533l0 0c1.0958252 0 2.1467743 0.48275757 2.921646 1.3420715c0.7748718 0.8593445 1.2102051 2.0248108 1.2102051 3.2400818l0 0c0 2.5306702 -1.8498993 4.5821533 -4.131851 4.5821533l0 0c-2.2819672 0 -4.131851 -2.0514832 -4.131851 -4.5821533z" fill-rule="evenodd"/><path stroke="#595959" stroke-width="1.0" stroke-linejoin="round" stroke-linecap="butt" d="m128.43748 331.08972l0 0c0 -2.5306396 1.849884 -4.5821533 4.131851 -4.5821533l0 0c1.0958252 0 2.1467743 0.48275757 2.921646 1.3420715c0.7748718 0.8593445 1.2102051 2.0248108 1.2102051 3.2400818l0 0c0 2.5306702 -1.8498993 4.5821533 -4.131851 4.5821533l0 0c-2.2819672 0 -4.131851 -2.0514832 -4.131851 -4.5821533z" fill-rule="evenodd"/><path fill="#4bec73" d="m177.30827 338.15982l0 0c0 -2.5306702 1.849884 -4.582184 4.131851 -4.582184l0 0c1.0958252 0 2.1467896 0.48275757 2.9216614 1.342102c0.7748718 0.85931396 1.2101898 2.0248108 1.2101898 3.2400818l0 0c0 2.5306396 -1.8498993 4.5821533 -4.131851 4.5821533l0 0c-2.2819672 0 -4.131851 -2.0515137 -4.131851 -4.5821533z" fill-rule="evenodd"/><path stroke="#595959" stroke-width="1.0" stroke-linejoin="round" stroke-linecap="butt" d="m177.30827 338.15982l0 0c0 -2.5306702 1.849884 -4.582184 4.131851 -4.582184l0 0c1.0958252 0 2.1467896 0.48275757 2.9216614 1.342102c0.7748718 0.85931396 1.2101898 2.0248108 1.2101898 3.2400818l0 0c0 2.5306396 -1.8498993 4.5821533 -4.131851 4.5821533l0 0c-2.2819672 0 -4.131851 -2.0515137 -4.131851 -4.5821533z" fill-rule="evenodd"/><path fill="#4bec73" d="m154.53157 331.08972l0 0c0 -2.5306396 1.8498993 -4.5821533 4.131851 -4.5821533l0 0c1.0958405 0 2.1467896 0.48275757 2.9216614 1.3420715c0.7748718 0.8593445 1.2101898 2.0248108 1.2101898 3.2400818l0 0c0 2.5306702 -1.849884 4.5821533 -4.131851 4.5821533l0 0c-2.281952 0 -4.131851 -2.0514832 -4.131851 -4.5821533z" fill-rule="evenodd"/><path stroke="#595959" stroke-width="1.0" stroke-linejoin="round" stroke-linecap="butt" d="m154.53157 331.08972l0 0c0 -2.5306396 1.8498993 -4.5821533 4.131851 -4.5821533l0 0c1.0958405 0 2.1467896 0.48275757 2.9216614 1.3420715c0.7748718 0.8593445 1.2101898 2.0248108 1.2101898 3.2400818l0 0c0 2.5306702 -1.849884 4.5821533 -4.131851 4.5821533l0 0c-2.281952 0 -4.131851 -2.0514832 -4.131851 -4.5821533z" fill-rule="evenodd"/><path fill="#4bec73" d="m204.09952 331.08972l0 0c0 -2.5306396 1.849884 -4.5821533 4.131851 -4.5821533l0 0c1.0958252 0 2.1467743 0.48275757 2.921646 1.3420715c0.7748718 0.8593445 1.2101898 2.0248108 1.2101898 3.2400818l0 0c0 2.5306702 -1.849884 4.5821533 -4.131836 4.5821533l0 0c-2.2819672 0 -4.131851 -2.0514832 -4.131851 -4.5821533z" fill-rule="evenodd"/><path stroke="#595959" stroke-width="1.0" stroke-linejoin="round" stroke-linecap="butt" d="m204.09952 331.08972l0 0c0 -2.5306396 1.849884 -4.5821533 4.131851 -4.5821533l0 0c1.0958252 0 2.1467743 0.48275757 2.921646 1.3420715c0.7748718 0.8593445 1.2101898 2.0248108 1.2101898 3.2400818l0 0c0 2.5306702 -1.849884 4.5821533 -4.131836 4.5821533l0 0c-2.2819672 0 -4.131851 -2.0514832 -4.131851 -4.5821533z" fill-rule="evenodd"/><path fill="#eeeeee" d="m232.81386 331.08972l0 0c0 -2.5306396 1.8498993 -4.5821533 4.131851 -4.5821533l0 0c1.0958405 0 2.1467896 0.48275757 2.9216614 1.3420715c0.7748718 0.8593445 1.2101898 2.0248108 1.2101898 3.2400818l0 0c0 2.5306702 -1.8498993 4.5821533 -4.131851 4.5821533l0 0c-2.281952 0 -4.131851 -2.0514832 -4.131851 -4.5821533z" fill-rule="evenodd"/><path stroke="#595959" stroke-width="1.0" stroke-linejoin="round" stroke-linecap="butt" d="m232.81386 331.08972l0 0c0 -2.5306396 1.8498993 -4.5821533 4.131851 -4.5821533l0 0c1.0958405 0 2.1467896 0.48275757 2.9216614 1.3420715c0.7748718 0.8593445 1.2101898 2.0248108 1.2101898 3.2400818l0 0c0 2.5306702 -1.8498993 4.5821533 -4.131851 4.5821533l0 0c-2.281952 0 -4.131851 -2.0514832 -4.131851 -4.5821533z" fill-rule="evenodd"/><path fill="#4bec73" d="m193.99008 316.65994l0 0c0 -2.5306702 1.849884 -4.582184 4.131851 -4.582184l0 0c1.0958252 0 2.1467896 0.48275757 2.9216614 1.342102c0.7748718 0.85931396 1.2101898 2.0248108 1.2101898 3.2400818l0 0c0 2.5306396 -1.8498993 4.5821533 -4.131851 4.5821533l0 0c-2.2819672 0 -4.131851 -2.0515137 -4.131851 -4.5821533z" fill-rule="evenodd"/><path stroke="#595959" stroke-width="1.0" stroke-linejoin="round" stroke-linecap="butt" d="m193.99008 316.65994l0 0c0 -2.5306702 1.849884 -4.582184 4.131851 -4.582184l0 0c1.0958252 0 2.1467896 0.48275757 2.9216614 1.342102c0.7748718 0.85931396 1.2101898 2.0248108 1.2101898 3.2400818l0 0c0 2.5306396 -1.8498993 4.5821533 -4.131851 4.5821533l0 0c-2.2819672 0 -4.131851 -2.0515137 -4.131851 -4.5821533z" fill-rule="evenodd"/><path fill="#eeeeee" d="m111.87616 346.2713l0 0c0 -2.5306396 1.8498917 -4.5821533 4.131851 -4.5821533l0 0c1.0958328 0 2.146782 0.48275757 2.9216537 1.342102c0.77487946 0.85931396 1.2101974 2.0248108 1.2101974 3.2400513l0 0c0 2.5306702 -1.8498917 4.582184 -4.131851 4.582184l0 0c-2.2819595 0 -4.131851 -2.0515137 -4.131851 -4.582184z" fill-rule="evenodd"/><path stroke="#595959" stroke-width="1.0" stroke-linejoin="round" stroke-linecap="butt" d="m111.87616 346.2713l0 0c0 -2.5306396 1.8498917 -4.5821533 4.131851 -4.5821533l0 0c1.0958328 0 2.146782 0.48275757 2.9216537 1.342102c0.77487946 0.85931396 1.2101974 2.0248108 1.2101974 3.2400513l0 0c0 2.5306702 -1.8498917 4.582184 -4.131851 4.582184l0 0c-2.2819595 0 -4.131851 -2.0515137 -4.131851 -4.582184z" fill-rule="evenodd"/><path fill="#4bec73" d="m177.30827 357.5427l0 0c0 -2.5306396 1.849884 -4.5821533 4.131851 -4.5821533l0 0c1.0958252 0 2.1467896 0.48275757 2.9216614 1.342102c0.7748718 0.85931396 1.2101898 2.0248108 1.2101898 3.2400513l0 0c0 2.5306702 -1.8498993 4.582184 -4.131851 4.582184l0 0c-2.2819672 0 -4.131851 -2.0515137 -4.131851 -4.582184z" fill-rule="evenodd"/><path stroke="#595959" stroke-width="1.0" stroke-linejoin="round" stroke-linecap="butt" d="m177.30827 357.5427l0 0c0 -2.5306396 1.849884 -4.5821533 4.131851 -4.5821533l0 0c1.0958252 0 2.1467896 0.48275757 2.9216614 1.342102c0.7748718 0.85931396 1.2101898 2.0248108 1.2101898 3.2400513l0 0c0 2.5306702 -1.8498993 4.582184 -4.131851 4.582184l0 0c-2.2819672 0 -4.131851 -2.0515137 -4.131851 -4.582184z" fill-rule="evenodd"/><path fill="#4bec73" d="m145.47638 346.2713l0 0c0 -2.5306396 1.8498993 -4.5821533 4.131851 -4.5821533l0 0c1.0958405 0 2.1467896 0.48275757 2.9216614 1.342102c0.7748718 0.85931396 1.2101898 2.0248108 1.2101898 3.2400513l0 0c0 2.5306702 -1.8498993 4.582184 -4.131851 4.582184l0 0c-2.281952 0 -4.131851 -2.0515137 -4.131851 -4.582184z" fill-rule="evenodd"/><path stroke="#595959" stroke-width="1.0" stroke-linejoin="round" stroke-linecap="butt" d="m145.47638 346.2713l0 0c0 -2.5306396 1.8498993 -4.5821533 4.131851 -4.5821533l0 0c1.0958405 0 2.1467896 0.48275757 2.9216614 1.342102c0.7748718 0.85931396 1.2101898 2.0248108 1.2101898 3.2400513l0 0c0 2.5306702 -1.8498993 4.582184 -4.131851 4.582184l0 0c-2.281952 0 -4.131851 -2.0515137 -4.131851 -4.582184z" fill-rule="evenodd"/><path fill="#4bec73" d="m212.67682 346.2713l0 0c0 -2.5306396 1.8498993 -4.5821533 4.131851 -4.5821533l0 0c1.0958405 0 2.1467896 0.48275757 2.9216614 1.342102c0.7748718 0.85931396 1.2101898 2.0248108 1.2101898 3.2400513l0 0c0 2.5306702 -1.849884 4.582184 -4.131851 4.582184l0 0c-2.281952 0 -4.131851 -2.0515137 -4.131851 -4.582184z" fill-rule="evenodd"/><path stroke="#595959" stroke-width="1.0" stroke-linejoin="round" stroke-linecap="butt" d="m212.67682 346.2713l0 0c0 -2.5306396 1.8498993 -4.5821533 4.131851 -4.5821533l0 0c1.0958405 0 2.1467896 0.48275757 2.9216614 1.342102c0.7748718 0.85931396 1.2101898 2.0248108 1.2101898 3.2400513l0 0c0 2.5306702 -1.849884 4.582184 -4.131851 4.582184l0 0c-2.281952 0 -4.131851 -2.0515137 -4.131851 -4.582184z" fill-rule="evenodd"/><path fill="#eeeeee" d="m248.84302 347.22885l0 0c0 -2.5306396 1.8498993 -4.5821533 4.131851 -4.5821533l0 0c1.0958405 0 2.1467896 0.48275757 2.9216614 1.3420715c0.7748871 0.8593445 1.2101898 2.0248108 1.2101898 3.2400818l0 0c0 2.5306702 -1.849884 4.5821533 -4.131851 4.5821533l0 0c-2.281952 0 -4.131851 -2.0514832 -4.131851 -4.5821533z" fill-rule="evenodd"/><path stroke="#595959" stroke-width="1.0" stroke-linejoin="round" stroke-linecap="butt" d="m248.84302 347.22885l0 0c0 -2.5306396 1.8498993 -4.5821533 4.131851 -4.5821533l0 0c1.0958405 0 2.1467896 0.48275757 2.9216614 1.3420715c0.7748871 0.8593445 1.2101898 2.0248108 1.2101898 3.2400818l0 0c0 2.5306702 -1.849884 4.5821533 -4.131851 4.5821533l0 0c-2.281952 0 -4.131851 -2.0514832 -4.131851 -4.5821533z" fill-rule="evenodd"/><path fill="#eeeeee" d="m177.30827 376.9256l0 0c0 -2.5306396 1.849884 -4.5821533 4.131851 -4.5821533l0 0c1.0958252 0 2.1467896 0.48275757 2.9216614 1.3420715c0.7748718 0.8593445 1.2101898 2.0248108 1.2101898 3.2400818l0 0c0 2.5306702 -1.8498993 4.582184 -4.131851 4.582184l0 0c-2.2819672 0 -4.131851 -2.0515137 -4.131851 -4.582184z" fill-rule="evenodd"/><path stroke="#595959" stroke-width="1.0" stroke-linejoin="round" stroke-linecap="butt" d="m177.30827 376.9256l0 0c0 -2.5306396 1.849884 -4.5821533 4.131851 -4.5821533l0 0c1.0958252 0 2.1467896 0.48275757 2.9216614 1.3420715c0.7748718 0.8593445 1.2101898 2.0248108 1.2101898 3.2400818l0 0c0 2.5306702 -1.8498993 4.582184 -4.131851 4.582184l0 0c-2.2819672 0 -4.131851 -2.0515137 -4.131851 -4.582184z" fill-rule="evenodd"/><path fill="#eeeeee" d="m134.70383 361.4529l0 0c0 -2.5306702 1.8498993 -4.582184 4.131851 -4.582184l0 0c1.0958405 0 2.1467896 0.48275757 2.9216614 1.342102c0.7748718 0.85931396 1.2101898 2.0248108 1.2101898 3.2400818l0 0c0 2.5306396 -1.8498993 4.5821533 -4.131851 4.5821533l0 0c-2.281952 0 -4.131851 -2.0515137 -4.131851 -4.5821533z" fill-rule="evenodd"/><path stroke="#595959" stroke-width="1.0" stroke-linejoin="round" stroke-linecap="butt" d="m134.70383 361.4529l0 0c0 -2.5306702 1.8498993 -4.582184 4.131851 -4.582184l0 0c1.0958405 0 2.1467896 0.48275757 2.9216614 1.342102c0.7748718 0.85931396 1.2101898 2.0248108 1.2101898 3.2400818l0 0c0 2.5306396 -1.8498993 4.5821533 -4.131851 4.5821533l0 0c-2.281952 0 -4.131851 -2.0515137 -4.131851 -4.5821533z" fill-rule="evenodd"/><path fill="#eeeeee" d="m220.40321 361.4529l0 0c0 -2.5306702 1.849884 -4.582184 4.131851 -4.582184l0 0c1.0958405 0 2.1467896 0.48275757 2.9216614 1.342102c0.7748718 0.85931396 1.2101898 2.0248108 1.2101898 3.2400818l0 0c0 2.5306396 -1.8498993 4.5821533 -4.131851 4.5821533l0 0c-2.2819672 0 -4.131851 -2.0515137 -4.131851 -4.5821533z" fill-rule="evenodd"/><path stroke="#595959" stroke-width="1.0" stroke-linejoin="round" stroke-linecap="butt" d="m220.40321 361.4529l0 0c0 -2.5306702 1.849884 -4.582184 4.131851 -4.582184l0 0c1.0958405 0 2.1467896 0.48275757 2.9216614 1.342102c0.7748718 0.85931396 1.2101898 2.0248108 1.2101898 3.2400818l0 0c0 2.5306396 -1.8498993 4.5821533 -4.131851 4.5821533l0 0c-2.2819672 0 -4.131851 -2.0515137 -4.131851 -4.5821533z" fill-rule="evenodd"/><path fill="#4bec73" d="m143.4775 282.86252l0 0c0 2.620514 1.8498993 4.7448425 4.131851 4.7448425l0 0c1.0958405 0 2.1467896 -0.49990845 2.9216614 -1.38974c0.7748718 -0.88983154 1.2101898 -2.0966797 1.2101898 -3.3551025l0 0c0 -2.620514 -1.849884 -4.7448425 -4.131851 -4.7448425l0 0c-2.281952 0 -4.131851 2.1243286 -4.131851 4.7448425z" fill-rule="evenodd"/><path stroke="#595959" stroke-width="1.0" stroke-linejoin="round" stroke-linecap="butt" d="m143.4775 282.86252l0 0c0 2.620514 1.8498993 4.7448425 4.131851 4.7448425l0 0c1.0958405 0 2.1467896 -0.49990845 2.9216614 -1.38974c0.7748718 -0.88983154 1.2101898 -2.0966797 1.2101898 -3.3551025l0 0c0 -2.620514 -1.849884 -4.7448425 -4.131851 -4.7448425l0 0c-2.281952 0 -4.131851 2.1243286 -4.131851 4.7448425z" fill-rule="evenodd"/><path fill="#4bec73" d="m177.30827 279.84842l0 0c0 2.620514 1.849884 4.7448425 4.131851 4.7448425l0 0c1.0958252 0 2.1467896 -0.49987793 2.9216614 -1.3897095c0.7748718 -0.88983154 1.2101898 -2.0967102 1.2101898 -3.355133l0 0c0 -2.6204834 -1.8498993 -4.7448425 -4.131851 -4.7448425l0 0c-2.2819672 0 -4.131851 2.1243591 -4.131851 4.7448425z" fill-rule="evenodd"/><path stroke="#595959" stroke-width="1.0" stroke-linejoin="round" stroke-linecap="butt" d="m177.30827 279.84842l0 0c0 2.620514 1.849884 4.7448425 4.131851 4.7448425l0 0c1.0958252 0 2.1467896 -0.49987793 2.9216614 -1.3897095c0.7748718 -0.88983154 1.2101898 -2.0967102 1.2101898 -3.355133l0 0c0 -2.6204834 -1.8498993 -4.7448425 -4.131851 -4.7448425l0 0c-2.2819672 0 -4.131851 2.1243591 -4.131851 4.7448425z" fill-rule="evenodd"/><path fill="#4bec73" d="m159.80833 282.86252l0 0c0 2.620514 1.849884 4.7448425 4.131851 4.7448425l0 0c1.0958252 0 2.1467896 -0.49990845 2.9216614 -1.38974c0.7748718 -0.88983154 1.2101898 -2.0966797 1.2101898 -3.3551025l0 0c0 -2.620514 -1.8498993 -4.7448425 -4.131851 -4.7448425l0 0c-2.2819672 0 -4.131851 2.1243286 -4.131851 4.7448425z" fill-rule="evenodd"/><path stroke="#595959" stroke-width="1.0" stroke-linejoin="round" stroke-linecap="butt" d="m159.80833 282.86252l0 0c0 2.620514 1.849884 4.7448425 4.131851 4.7448425l0 0c1.0958252 0 2.1467896 -0.49990845 2.9216614 -1.38974c0.7748718 -0.88983154 1.2101898 -2.0966797 1.2101898 -3.3551025l0 0c0 -2.620514 -1.8498993 -4.7448425 -4.131851 -4.7448425l0 0c-2.2819672 0 -4.131851 2.1243286 -4.131851 4.7448425z" fill-rule="evenodd"/><path fill="#4bec73" d="m208.80083 282.86252l0 0c0 2.620514 1.849884 4.7448425 4.131851 4.7448425l0 0c1.0958252 0 2.1467743 -0.49990845 2.921646 -1.38974c0.7748871 -0.88983154 1.2102051 -2.0966797 1.2102051 -3.3551025l0 0c0 -2.620514 -1.8498993 -4.7448425 -4.131851 -4.7448425l0 0c-2.2819672 0 -4.131851 2.1243286 -4.131851 4.7448425z" fill-rule="evenodd"/><path stroke="#595959" stroke-width="1.0" stroke-linejoin="round" stroke-linecap="butt" d="m208.80083 282.86252l0 0c0 2.620514 1.849884 4.7448425 4.131851 4.7448425l0 0c1.0958252 0 2.1467743 -0.49990845 2.921646 -1.38974c0.7748871 -0.88983154 1.2102051 -2.0966797 1.2102051 -3.3551025l0 0c0 -2.620514 -1.8498993 -4.7448425 -4.131851 -4.7448425l0 0c-2.2819672 0 -4.131851 2.1243286 -4.131851 4.7448425z" fill-rule="evenodd"/><path fill="#4bec73" d="m126.917534 267.93506l0 0c0 2.620514 1.8498917 4.7448425 4.131859 4.7448425l0 0c1.0958252 0 2.1467743 -0.49990845 2.921646 -1.3897095c0.7748718 -0.88983154 1.2102051 -2.0967102 1.2102051 -3.355133l0 0c0 -2.6204834 -1.8498993 -4.7448425 -4.131851 -4.7448425l0 0c-2.2819672 0 -4.131859 2.1243591 -4.131859 4.7448425z" fill-rule="evenodd"/><path stroke="#595959" stroke-width="1.0" stroke-linejoin="round" stroke-linecap="butt" d="m126.917534 267.93506l0 0c0 2.620514 1.8498917 4.7448425 4.131859 4.7448425l0 0c1.0958252 0 2.1467743 -0.49990845 2.921646 -1.3897095c0.7748718 -0.88983154 1.2102051 -2.0967102 1.2102051 -3.355133l0 0c0 -2.6204834 -1.8498993 -4.7448425 -4.131851 -4.7448425l0 0c-2.2819672 0 -4.131859 2.1243591 -4.131859 4.7448425z" fill-rule="evenodd"/><path fill="#4bec73" d="m177.30827 260.14017l0 0c0 2.620514 1.849884 4.7448425 4.131851 4.7448425l0 0c1.0958252 0 2.1467896 -0.49990845 2.9216614 -1.38974c0.7748718 -0.88983154 1.2101898 -2.0966797 1.2101898 -3.3551025l0 0c0 -2.620514 -1.8498993 -4.7448425 -4.131851 -4.7448425l0 0c-2.2819672 0 -4.131851 2.1243286 -4.131851 4.7448425z" fill-rule="evenodd"/><path stroke="#595959" stroke-width="1.0" stroke-linejoin="round" stroke-linecap="butt" d="m177.30827 260.14017l0 0c0 2.620514 1.849884 4.7448425 4.131851 4.7448425l0 0c1.0958252 0 2.1467896 -0.49990845 2.9216614 -1.38974c0.7748718 -0.88983154 1.2101898 -2.0966797 1.2101898 -3.3551025l0 0c0 -2.620514 -1.8498993 -4.7448425 -4.131851 -4.7448425l0 0c-2.2819672 0 -4.131851 2.1243286 -4.131851 4.7448425z" fill-rule="evenodd"/><path fill="#4bec73" d="m153.01157 267.93506l0 0c0 2.620514 1.8498993 4.7448425 4.131851 4.7448425l0 0c1.0958405 0 2.1467896 -0.49990845 2.9216614 -1.3897095c0.7748718 -0.88983154 1.2101898 -2.0967102 1.2101898 -3.355133l0 0c0 -2.6204834 -1.849884 -4.7448425 -4.131851 -4.7448425l0 0c-2.281952 0 -4.131851 2.1243591 -4.131851 4.7448425z" fill-rule="evenodd"/><path stroke="#595959" stroke-width="1.0" stroke-linejoin="round" stroke-linecap="butt" d="m153.01157 267.93506l0 0c0 2.620514 1.8498993 4.7448425 4.131851 4.7448425l0 0c1.0958405 0 2.1467896 -0.49990845 2.9216614 -1.3897095c0.7748718 -0.88983154 1.2101898 -2.0967102 1.2101898 -3.355133l0 0c0 -2.6204834 -1.849884 -4.7448425 -4.131851 -4.7448425l0 0c-2.281952 0 -4.131851 2.1243591 -4.131851 4.7448425z" fill-rule="evenodd"/><path fill="#4bec73" d="m205.19965 267.93506l0 0c0 2.620514 1.8498993 4.7448425 4.131851 4.7448425l0 0c1.0958405 0 2.1467896 -0.49990845 2.9216614 -1.3897095c0.7748718 -0.88983154 1.2101898 -2.0967102 1.2101898 -3.355133l0 0c0 -2.6204834 -1.8498993 -4.7448425 -4.131851 -4.7448425l0 0c-2.281952 0 -4.131851 2.1243591 -4.131851 4.7448425z" fill-rule="evenodd"/><path stroke="#595959" stroke-width="1.0" stroke-linejoin="round" stroke-linecap="butt" d="m205.19965 267.93506l0 0c0 2.620514 1.8498993 4.7448425 4.131851 4.7448425l0 0c1.0958405 0 2.1467896 -0.49990845 2.9216614 -1.3897095c0.7748718 -0.88983154 1.2101898 -2.0967102 1.2101898 -3.355133l0 0c0 -2.6204834 -1.8498993 -4.7448425 -4.131851 -4.7448425l0 0c-2.281952 0 -4.131851 2.1243591 -4.131851 4.7448425z" fill-rule="evenodd"/><path fill="#4bec73" d="m231.29369 267.93506l0 0c0 2.620514 1.8498993 4.7448425 4.131851 4.7448425l0 0c1.0958405 0 2.1467896 -0.49990845 2.9216614 -1.3897095c0.7748718 -0.88983154 1.2101898 -2.0967102 1.2101898 -3.355133l0 0c0 -2.6204834 -1.8498993 -4.7448425 -4.131851 -4.7448425l0 0c-2.281952 0 -4.131851 2.1243591 -4.131851 4.7448425z" fill-rule="evenodd"/><path stroke="#595959" stroke-width="1.0" stroke-linejoin="round" stroke-linecap="butt" d="m231.29369 267.93506l0 0c0 2.620514 1.8498993 4.7448425 4.131851 4.7448425l0 0c1.0958405 0 2.1467896 -0.49990845 2.9216614 -1.3897095c0.7748718 -0.88983154 1.2101898 -2.0967102 1.2101898 -3.355133l0 0c0 -2.6204834 -1.8498993 -4.7448425 -4.131851 -4.7448425l0 0c-2.281952 0 -4.131851 2.1243591 -4.131851 4.7448425z" fill-rule="evenodd"/><path fill="#4bec73" d="m192.46999 282.86252l0 0c0 2.620514 1.8498993 4.7448425 4.131851 4.7448425l0 0c1.0958405 0 2.1467896 -0.49990845 2.9216614 -1.38974c0.7748718 -0.88983154 1.2101898 -2.0966797 1.2101898 -3.3551025l0 0c0 -2.620514 -1.849884 -4.7448425 -4.131851 -4.7448425l0 0c-2.281952 0 -4.131851 2.1243286 -4.131851 4.7448425z" fill-rule="evenodd"/><path stroke="#595959" stroke-width="1.0" stroke-linejoin="round" stroke-linecap="butt" d="m192.46999 282.86252l0 0c0 2.620514 1.8498993 4.7448425 4.131851 4.7448425l0 0c1.0958405 0 2.1467896 -0.49990845 2.9216614 -1.38974c0.7748718 -0.88983154 1.2101898 -2.0966797 1.2101898 -3.3551025l0 0c0 -2.620514 -1.849884 -4.7448425 -4.131851 -4.7448425l0 0c-2.281952 0 -4.131851 2.1243286 -4.131851 4.7448425z" fill-rule="evenodd"/><path fill="#eeeeee" d="m110.356255 252.2299l0 0c0 2.6204987 1.8498917 4.7448273 4.131851 4.7448273l0 0c1.0958328 0 2.146782 -0.49987793 2.9216537 -1.3897247c0.7748718 -0.88983154 1.2101974 -2.096695 1.2101974 -3.3551025l0 0c0 -2.620514 -1.8498993 -4.7448425 -4.131851 -4.7448425l0 0c-2.2819595 0 -4.131851 2.1243286 -4.131851 4.7448425z" fill-rule="evenodd"/><path stroke="#595959" stroke-width="1.0" stroke-linejoin="round" stroke-linecap="butt" d="m110.356255 252.2299l0 0c0 2.6204987 1.8498917 4.7448273 4.131851 4.7448273l0 0c1.0958328 0 2.146782 -0.49987793 2.9216537 -1.3897247c0.7748718 -0.88983154 1.2101974 -2.096695 1.2101974 -3.3551025l0 0c0 -2.620514 -1.8498993 -4.7448425 -4.131851 -4.7448425l0 0c-2.2819595 0 -4.131851 2.1243286 -4.131851 4.7448425z" fill-rule="evenodd"/><path fill="#4bec73" d="m177.30827 240.43192l0 0c0 2.6204987 1.849884 4.7448425 4.131851 4.7448425l0 0c1.0958252 0 2.1467896 -0.49990845 2.9216614 -1.38974c0.7748718 -0.88983154 1.2101898 -2.096695 1.2101898 -3.3551025l0 0c0 -2.620514 -1.8498993 -4.7448425 -4.131851 -4.7448425l0 0c-2.2819672 0 -4.131851 2.1243286 -4.131851 4.7448425z" fill-rule="evenodd"/><path stroke="#595959" stroke-width="1.0" stroke-linejoin="round" stroke-linecap="butt" d="m177.30827 240.43192l0 0c0 2.6204987 1.849884 4.7448425 4.131851 4.7448425l0 0c1.0958252 0 2.1467896 -0.49990845 2.9216614 -1.38974c0.7748718 -0.88983154 1.2101898 -2.096695 1.2101898 -3.3551025l0 0c0 -2.620514 -1.8498993 -4.7448425 -4.131851 -4.7448425l0 0c-2.2819672 0 -4.131851 2.1243286 -4.131851 4.7448425z" fill-rule="evenodd"/><path fill="#4bec73" d="m143.9564 252.2299l0 0c0 2.6204987 1.849884 4.7448273 4.131851 4.7448273l0 0c1.0958252 0 2.1467743 -0.49987793 2.921646 -1.3897247c0.7748718 -0.88983154 1.2102051 -2.096695 1.2102051 -3.3551025l0 0c0 -2.620514 -1.8498993 -4.7448425 -4.131851 -4.7448425l0 0c-2.2819672 0 -4.131851 2.1243286 -4.131851 4.7448425z" fill-rule="evenodd"/><path stroke="#595959" stroke-width="1.0" stroke-linejoin="round" stroke-linecap="butt" d="m143.9564 252.2299l0 0c0 2.6204987 1.849884 4.7448273 4.131851 4.7448273l0 0c1.0958252 0 2.1467743 -0.49987793 2.921646 -1.3897247c0.7748718 -0.88983154 1.2102051 -2.096695 1.2102051 -3.3551025l0 0c0 -2.620514 -1.8498993 -4.7448425 -4.131851 -4.7448425l0 0c-2.2819672 0 -4.131851 2.1243286 -4.131851 4.7448425z" fill-rule="evenodd"/><path fill="#4bec73" d="m211.1567 252.2299l0 0c0 2.6204987 1.8498993 4.7448273 4.131851 4.7448273l0 0c1.0958405 0 2.1467896 -0.49987793 2.9216614 -1.3897247c0.7748718 -0.88983154 1.2101898 -2.096695 1.2101898 -3.3551025l0 0c0 -2.620514 -1.849884 -4.7448425 -4.131851 -4.7448425l0 0c-2.281952 0 -4.131851 2.1243286 -4.131851 4.7448425z" fill-rule="evenodd"/><path stroke="#595959" stroke-width="1.0" stroke-linejoin="round" stroke-linecap="butt" d="m211.1567 252.2299l0 0c0 2.6204987 1.8498993 4.7448273 4.131851 4.7448273l0 0c1.0958405 0 2.1467896 -0.49987793 2.9216614 -1.3897247c0.7748718 -0.88983154 1.2101898 -2.096695 1.2101898 -3.3551025l0 0c0 -2.620514 -1.849884 -4.7448425 -4.131851 -4.7448425l0 0c-2.281952 0 -4.131851 2.1243286 -4.131851 4.7448425z" fill-rule="evenodd"/><path fill="#eeeeee" d="m244.75684 252.2299l0 0c0 2.6204987 1.8498993 4.7448273 4.131851 4.7448273l0 0c1.0958405 0 2.1467896 -0.49987793 2.9216614 -1.3897247c0.7748718 -0.88983154 1.2101898 -2.096695 1.2101898 -3.3551025l0 0c0 -2.620514 -1.849884 -4.7448425 -4.131851 -4.7448425l0 0c-2.281952 0 -4.131851 2.1243286 -4.131851 4.7448425z" fill-rule="evenodd"/><path stroke="#595959" stroke-width="1.0" stroke-linejoin="round" stroke-linecap="butt" d="m244.75684 252.2299l0 0c0 2.6204987 1.8498993 4.7448273 4.131851 4.7448273l0 0c1.0958405 0 2.1467896 -0.49987793 2.9216614 -1.3897247c0.7748718 -0.88983154 1.2101898 -2.096695 1.2101898 -3.3551025l0 0c0 -2.620514 -1.849884 -4.7448425 -4.131851 -4.7448425l0 0c-2.281952 0 -4.131851 2.1243286 -4.131851 4.7448425z" fill-rule="evenodd"/><path fill="#eeeeee" d="m177.30827 220.72365l0 0c0 2.6204987 1.849884 4.7448425 4.131851 4.7448425l0 0c1.0958252 0 2.1467896 -0.4998932 2.9216614 -1.3897247c0.7748718 -0.88983154 1.2101898 -2.0967102 1.2101898 -3.3551178l0 0c0 -2.6204987 -1.8498993 -4.7448425 -4.131851 -4.7448425l0 0c-2.2819672 0 -4.131851 2.1243439 -4.131851 4.7448425z" fill-rule="evenodd"/><path stroke="#595959" stroke-width="1.0" stroke-linejoin="round" stroke-linecap="butt" d="m177.30827 220.72365l0 0c0 2.6204987 1.849884 4.7448425 4.131851 4.7448425l0 0c1.0958252 0 2.1467896 -0.4998932 2.9216614 -1.3897247c0.7748718 -0.88983154 1.2101898 -2.0967102 1.2101898 -3.3551178l0 0c0 -2.6204987 -1.8498993 -4.7448425 -4.131851 -4.7448425l0 0c-2.2819672 0 -4.131851 2.1243439 -4.131851 4.7448425z" fill-rule="evenodd"/><path fill="#eeeeee" d="m133.18387 236.52473l0 0c0 2.6204987 1.8498993 4.7448425 4.131851 4.7448425l0 0c1.0958405 0 2.1467896 -0.49990845 2.9216614 -1.38974c0.7748718 -0.88983154 1.2101898 -2.096695 1.2101898 -3.3551025l0 0c0 -2.620514 -1.849884 -4.7448425 -4.131851 -4.7448425l0 0c-2.281952 0 -4.131851 2.1243286 -4.131851 4.7448425z" fill-rule="evenodd"/><path stroke="#595959" stroke-width="1.0" stroke-linejoin="round" stroke-linecap="butt" d="m133.18387 236.52473l0 0c0 2.6204987 1.8498993 4.7448425 4.131851 4.7448425l0 0c1.0958405 0 2.1467896 -0.49990845 2.9216614 -1.38974c0.7748718 -0.88983154 1.2101898 -2.096695 1.2101898 -3.3551025l0 0c0 -2.620514 -1.849884 -4.7448425 -4.131851 -4.7448425l0 0c-2.281952 0 -4.131851 2.1243286 -4.131851 4.7448425z" fill-rule="evenodd"/><path fill="#eeeeee" d="m218.88307 236.52473l0 0c0 2.6204987 1.849884 4.7448425 4.131851 4.7448425l0 0c1.0958252 0 2.1467743 -0.49990845 2.921646 -1.38974c0.7748718 -0.88983154 1.2101898 -2.096695 1.2101898 -3.3551025l0 0c0 -2.620514 -1.849884 -4.7448425 -4.131836 -4.7448425l0 0c-2.2819672 0 -4.131851 2.1243286 -4.131851 4.7448425z" fill-rule="evenodd"/><path stroke="#595959" stroke-width="1.0" stroke-linejoin="round" stroke-linecap="butt" d="m218.88307 236.52473l0 0c0 2.6204987 1.849884 4.7448425 4.131851 4.7448425l0 0c1.0958252 0 2.1467743 -0.49990845 2.921646 -1.38974c0.7748718 -0.88983154 1.2101898 -2.096695 1.2101898 -3.3551025l0 0c0 -2.620514 -1.849884 -4.7448425 -4.131836 -4.7448425l0 0c-2.2819672 0 -4.131851 2.1243286 -4.131851 4.7448425z" fill-rule="evenodd"/><path fill="#4bec73" d="m237.73924 300.04413l0 0c0 -2.5306702 1.8498993 -4.5821533 4.131851 -4.5821533l0 0c1.0958405 0 2.1467896 0.48275757 2.9216614 1.3420715c0.7748718 0.85931396 1.2101898 2.0248108 1.2101898 3.2400818l0 0c0 2.5306702 -1.8498993 4.5821533 -4.131851 4.5821533l0 0c-2.281952 0 -4.131851 -2.0514832 -4.131851 -4.5821533z" fill-rule="evenodd"/><path stroke="#595959" stroke-width="1.0" stroke-linejoin="round" stroke-linecap="butt" d="m237.73924 300.04413l0 0c0 -2.5306702 1.8498993 -4.5821533 4.131851 -4.5821533l0 0c1.0958405 0 2.1467896 0.48275757 2.9216614 1.3420715c0.7748718 0.85931396 1.2101898 2.0248108 1.2101898 3.2400818l0 0c0 2.5306702 -1.8498993 4.5821533 -4.131851 4.5821533l0 0c-2.281952 0 -4.131851 -2.0514832 -4.131851 -4.5821533z" fill-rule="evenodd"/><path fill="#4bec73" d="m217.67863 300.04413l0 0c0 -2.5306702 1.849884 -4.5821533 4.131851 -4.5821533l0 0c1.0958252 0 2.1467743 0.48275757 2.921646 1.3420715c0.7748718 0.85931396 1.2101898 2.0248108 1.2101898 3.2400818l0 0c0 2.5306702 -1.849884 4.5821533 -4.131836 4.5821533l0 0c-2.2819672 0 -4.131851 -2.0514832 -4.131851 -4.5821533z" fill-rule="evenodd"/><path stroke="#595959" stroke-width="1.0" stroke-linejoin="round" stroke-linecap="butt" d="m217.67863 300.04413l0 0c0 -2.5306702 1.849884 -4.5821533 4.131851 -4.5821533l0 0c1.0958252 0 2.1467743 0.48275757 2.921646 1.3420715c0.7748718 0.85931396 1.2101898 2.0248108 1.2101898 3.2400818l0 0c0 2.5306702 -1.849884 4.5821533 -4.131836 4.5821533l0 0c-2.2819672 0 -4.131851 -2.0514832 -4.131851 -4.5821533z" fill-rule="evenodd"/><path fill="#eeeeee" d="m257.79987 300.04413l0 0c0 -2.5306702 1.849884 -4.5821533 4.131836 -4.5821533l0 0c1.0958557 0 2.1467896 0.48275757 2.9216614 1.3420715c0.7748718 0.85931396 1.2102051 2.0248108 1.2102051 3.2400818l0 0c0 2.5306702 -1.8499146 4.5821533 -4.1318665 4.5821533l0 0c-2.281952 0 -4.131836 -2.0514832 -4.131836 -4.5821533z" fill-rule="evenodd"/><path stroke="#595959" stroke-width="1.0" stroke-linejoin="round" stroke-linecap="butt" d="m257.79987 300.04413l0 0c0 -2.5306702 1.849884 -4.5821533 4.131836 -4.5821533l0 0c1.0958557 0 2.1467896 0.48275757 2.9216614 1.3420715c0.7748718 0.85931396 1.2102051 2.0248108 1.2102051 3.2400818l0 0c0 2.5306702 -1.8499146 4.5821533 -4.1318665 4.5821533l0 0c-2.281952 0 -4.131836 -2.0514832 -4.131836 -4.5821533z" fill-rule="evenodd"/><path fill="#4bec73" d="m117.37555 300.04413l0 0c0 -2.5306702 1.8498917 -4.5821533 4.131851 -4.5821533l0 0c1.0958328 0 2.1467896 0.48275757 2.9216614 1.3420715c0.7748718 0.85931396 1.2101898 2.0248108 1.2101898 3.2400818l0 0c0 2.5306702 -1.8498917 4.5821533 -4.131851 4.5821533l0 0c-2.2819595 0 -4.131851 -2.0514832 -4.131851 -4.5821533z" fill-rule="evenodd"/><path stroke="#595959" stroke-width="1.0" stroke-linejoin="round" stroke-linecap="butt" d="m117.37555 300.04413l0 0c0 -2.5306702 1.8498917 -4.5821533 4.131851 -4.5821533l0 0c1.0958328 0 2.1467896 0.48275757 2.9216614 1.3420715c0.7748718 0.85931396 1.2101898 2.0248108 1.2101898 3.2400818l0 0c0 2.5306702 -1.8498917 4.5821533 -4.131851 4.5821533l0 0c-2.2819595 0 -4.131851 -2.0514832 -4.131851 -4.5821533z" fill-rule="evenodd"/><path fill="#eeeeee" d="m97.31493 300.04413l0 0c0 -2.5306702 1.8498917 -4.5821533 4.131851 -4.5821533l0 0c1.0958328 0 2.1467896 0.48275757 2.9216614 1.3420715c0.7748718 0.85931396 1.2101898 2.0248108 1.2101898 3.2400818l0 0c0 2.5306702 -1.8498917 4.5821533 -4.131851 4.5821533l0 0c-2.2819595 0 -4.131851 -2.0514832 -4.131851 -4.5821533z" fill-rule="evenodd"/><path stroke="#595959" stroke-width="1.0" stroke-linejoin="round" stroke-linecap="butt" d="m97.31493 300.04413l0 0c0 -2.5306702 1.8498917 -4.5821533 4.131851 -4.5821533l0 0c1.0958328 0 2.1467896 0.48275757 2.9216614 1.3420715c0.7748718 0.85931396 1.2101898 2.0248108 1.2101898 3.2400818l0 0c0 2.5306702 -1.8498917 4.5821533 -4.131851 4.5821533l0 0c-2.2819595 0 -4.131851 -2.0514832 -4.131851 -4.5821533z" fill-rule="evenodd"/><path fill="#4bec73" d="m137.43617 300.04413l0 0c0 -2.5306702 1.849884 -4.5821533 4.131851 -4.5821533l0 0c1.0958252 0 2.1467743 0.48275757 2.921646 1.3420715c0.7748718 0.85931396 1.2101898 2.0248108 1.2101898 3.2400818l0 0c0 2.5306702 -1.849884 4.5821533 -4.131836 4.5821533l0 0c-2.2819672 0 -4.131851 -2.0514832 -4.131851 -4.5821533z" fill-rule="evenodd"/><path stroke="#595959" stroke-width="1.0" stroke-linejoin="round" stroke-linecap="butt" d="m137.43617 300.04413l0 0c0 -2.5306702 1.849884 -4.5821533 4.131851 -4.5821533l0 0c1.0958252 0 2.1467743 0.48275757 2.921646 1.3420715c0.7748718 0.85931396 1.2101898 2.0248108 1.2101898 3.2400818l0 0c0 2.5306702 -1.849884 4.5821533 -4.131836 4.5821533l0 0c-2.2819672 0 -4.131851 -2.0514832 -4.131851 -4.5821533z" fill-rule="evenodd"/><path fill="#000000" fill-opacity="0.0" d="m106.097115 634.56433l678.1732 0l0 84.031494l-678.1732 0z" fill-rule="evenodd"/><path fill="#7ab900" d="m185.587 694.7643l0 -38.171875l27.59375 0l0 4.5l-22.546875 0l0 11.6875l21.125 0l0 4.484375l-21.125 0l0 13.0l23.4375 0l0 4.5l-28.484375 0zm52.913193 -3.40625q-2.609375 2.203125 -5.015625 3.125q-2.40625 0.90625 -5.171875 0.90625q-4.546875 0 -7.0 -2.21875q-2.453125 -2.234375 -2.453125 -5.703125q0 -2.03125 0.921875 -3.703125q0.9375 -1.6875 2.421875 -2.703125q1.5 -1.015625 3.375 -1.53125q1.390625 -0.359375 4.171875 -0.703125q5.671875 -0.671875 8.359375 -1.609375q0.03125 -0.96875 0.03125 -1.234375q0 -2.859375 -1.328125 -4.03125q-1.796875 -1.59375 -5.34375 -1.59375q-3.3125 0 -4.890625 1.171875q-1.5625 1.15625 -2.328125 4.09375l-4.578125 -0.625q0.625 -2.9375 2.046875 -4.75q1.4375 -1.8125 4.140625 -2.78125q2.71875 -0.984375 6.28125 -0.984375q3.546875 0 5.75 0.84375q2.21875 0.828125 3.265625 2.09375q1.046875 1.25 1.453125 3.1875q0.234375 1.1875 0.234375 4.3125l0 6.25q0 6.546875 0.296875 8.28125q0.3125 1.71875 1.1875 3.3125l-4.890625 0q-0.734375 -1.453125 -0.9375 -3.40625zm-0.390625 -10.46875q-2.546875 1.03125 -7.65625 1.765625q-2.890625 0.421875 -4.09375 0.9375q-1.1875 0.515625 -1.84375 1.53125q-0.65625 1.0 -0.65625 2.21875q0 1.875 1.421875 3.125q1.421875 1.25 4.15625 1.25q2.703125 0 4.8125 -1.1875q2.109375 -1.1875 3.109375 -3.234375q0.75 -1.59375 0.75 -4.6875l0 -1.71875zm11.955444 13.875l0 -27.65625l4.21875 0l0 4.1875q1.609375 -2.9375 2.9687653 -3.875q1.375 -0.9375 3.015625 -0.9375q2.375 0 4.8125 1.515625l-1.609375 4.34375q-1.71875 -1.015625 -3.4375 -1.015625q-1.53125 0 -2.765625 0.921875q-1.21875 0.921875 -1.7343903 2.5625q-0.78125 2.5 -0.78125 5.46875l0 14.484375l-4.6875 0zm17.805557 0l0 -27.65625l4.21875 0l0 3.9375q3.046875 -4.5625 8.796875 -4.5625q2.5 0 4.59375 0.90625q2.109375 0.890625 3.140625 2.359375q1.046875 1.453125 1.46875 3.453125q0.25 1.296875 0.25 4.5625l0 17.0l-4.6875 0l0 -16.828125q0 -2.859375 -0.546875 -4.28125q-0.546875 -1.421875 -1.9375 -2.265625q-1.390625 -0.84375 -3.265625 -0.84375q-3.0 0 -5.171875 1.90625q-2.171875 1.890625 -2.171875 7.203125l0 15.109375l-4.6875 0zm44.42798 0l0 -27.65625l4.21875 0l0 4.1875q1.609375 -2.9375 2.96875 -3.875q1.375 -0.9375 3.015625 -0.9375q2.375 0 4.8125 1.515625l-1.609375 4.34375q-1.71875 -1.015625 -3.4375 -1.015625q-1.53125 0 -2.765625 0.921875q-1.21875 0.921875 -1.734375 2.5625q-0.78125 2.5 -0.78125 5.46875l0 14.484375l-4.6875 0zm36.743042 -8.90625l4.828125 0.59375q-1.140625 4.25 -4.234375 6.59375q-3.09375 2.34375 -7.921875 2.34375q-6.0625 0 -9.625 -3.734375q-3.546875 -3.734375 -3.546875 -10.484375q0 -6.984375 3.59375 -10.828125q3.59375 -3.859375 9.328125 -3.859375q5.546875 0 9.046875 3.78125q3.515625 3.765625 3.515625 10.625q0 0.40625 -0.015625 1.25l-20.625 0q0.265625 4.546875 2.578125 6.96875q2.3125 2.421875 5.78125 2.421875q2.578125 0 4.390625 -1.34375q1.828125 -1.359375 2.90625 -4.328125zm-15.390625 -7.578125l15.4375 0q-0.3125 -3.484375 -1.765625 -5.234375q-2.25 -2.703125 -5.8125 -2.703125q-3.234375 0 -5.4375 2.15625q-2.1875 2.15625 -2.421875 5.78125zm31.22107 16.484375l-8.46875 -27.65625l4.84375 0l4.40625 15.96875l1.640625 5.9375q0.09375 -0.453125 1.421875 -5.703125l4.40625 -16.203125l4.8125 0l4.140625 16.046875l1.375 5.28125l1.59375 -5.34375l4.734375 -15.984375l4.5625 0l-8.640625 27.65625l-4.875 0l-4.390625 -16.5625l-1.078125 -4.71875l-5.59375 21.28125l-4.890625 0zm51.44937 -3.40625q-2.609375 2.203125 -5.015625 3.125q-2.40625 0.90625 -5.171875 0.90625q-4.546875 0 -7.0 -2.21875q-2.453125 -2.234375 -2.453125 -5.703125q0 -2.03125 0.921875 -3.703125q0.9375 -1.6875 2.421875 -2.703125q1.5 -1.015625 3.375 -1.53125q1.390625 -0.359375 4.171875 -0.703125q5.671875 -0.671875 8.359375 -1.609375q0.03125 -0.96875 0.03125 -1.234375q0 -2.859375 -1.328125 -4.03125q-1.796875 -1.59375 -5.34375 -1.59375q-3.3125 0 -4.890625 1.171875q-1.5625 1.15625 -2.328125 4.09375l-4.578125 -0.625q0.625 -2.9375 2.046875 -4.75q1.4375 -1.8125 4.140625 -2.78125q2.71875 -0.984375 6.28125 -0.984375q3.546875 0 5.75 0.84375q2.21875 0.828125 3.265625 2.09375q1.046875 1.25 1.453125 3.1875q0.234375 1.1875 0.234375 4.3125l0 6.25q0 6.546875 0.296875 8.28125q0.3125 1.71875 1.1875 3.3125l-4.890625 0q-0.734375 -1.453125 -0.9375 -3.40625zm-0.390625 -10.46875q-2.546875 1.03125 -7.65625 1.765625q-2.890625 0.421875 -4.09375 0.9375q-1.1875 0.515625 -1.84375 1.53125q-0.65625 1.0 -0.65625 2.21875q0 1.875 1.421875 3.125q1.421875 1.25 4.15625 1.25q2.703125 0 4.8125 -1.1875q2.109375 -1.1875 3.109375 -3.234375q0.75 -1.59375 0.75 -4.6875l0 -1.71875zm11.955444 13.875l0 -27.65625l4.21875 0l0 4.1875q1.609375 -2.9375 2.96875 -3.875q1.375 -0.9375 3.015625 -0.9375q2.375 0 4.8125 1.515625l-1.609375 4.34375q-1.71875 -1.015625 -3.4375 -1.015625q-1.53125 0 -2.765625 0.921875q-1.21875 0.921875 -1.734375 2.5625q-0.78125 2.5 -0.78125 5.46875l0 14.484375l-4.6875 0zm35.743073 0l0 -3.484375q-2.625 4.109375 -7.734375 4.109375q-3.296875 0 -6.078125 -1.8125q-2.765625 -1.828125 -4.296875 -5.09375q-1.515625 -3.28125 -1.515625 -7.515625q0 -4.140625 1.375 -7.515625q1.375 -3.375 4.140625 -5.171875q2.765625 -1.796875 6.171875 -1.796875q2.5 0 4.453125 1.0625q1.953125 1.046875 3.171875 2.734375l0 -13.6875l4.671875 0l0 38.171875l-4.359375 0zm-14.8125 -13.796875q0 5.3125 2.234375 7.9375q2.25 2.625 5.296875 2.625q3.0625 0 5.203125 -2.5q2.15625 -2.515625 2.15625 -7.671875q0 -5.6875 -2.1875 -8.34375q-2.1875 -2.65625 -5.390625 -2.65625q-3.125 0 -5.21875 2.5625q-2.09375 2.546875 -2.09375 8.046875zm24.65857 5.546875l4.640625 -0.734375q0.390625 2.78125 2.171875 4.265625q1.78125 1.484375 4.984375 1.484375q3.234375 0 4.796875 -1.3125q1.5625 -1.3125 1.5625 -3.078125q0 -1.59375 -1.390625 -2.5q-0.953125 -0.625 -4.78125 -1.59375q-5.15625 -1.296875 -7.15625 -2.25q-1.984375 -0.953125 -3.015625 -2.625q-1.03125 -1.6875 -1.03125 -3.71875q0 -1.84375 0.84375 -3.421875q0.84375 -1.578125 2.3125 -2.625q1.09375 -0.796875 2.96875 -1.359375q1.890625 -0.5625 4.0625 -0.5625q3.25 0 5.703125 0.9375q2.46875 0.9375 3.640625 2.546875q1.171875 1.59375 1.609375 4.28125l-4.578125 0.625q-0.3125 -2.140625 -1.8125 -3.328125q-1.5 -1.203125 -4.234375 -1.203125q-3.21875 0 -4.609375 1.0625q-1.375 1.0625 -1.375 2.5q0 0.90625 0.578125 1.640625q0.5625 0.75 1.796875 1.25q0.703125 0.265625 4.140625 1.203125q4.96875 1.328125 6.9375 2.171875q1.96875 0.84375 3.078125 2.46875q1.125 1.609375 1.125 4.0q0 2.34375 -1.375 4.421875q-1.359375 2.0625 -3.9375 3.203125q-2.578125 1.125 -5.828125 1.125q-5.390625 0 -8.21875 -2.234375q-2.828125 -2.25 -3.609375 -6.640625zm53.589752 4.0625l0.671875 4.140625q-1.96875 0.40625 -3.53125 0.40625q-2.5625 0 -3.96875 -0.796875q-1.40625 -0.8125 -1.984375 -2.125q-0.5625 -1.3125 -0.5625 -5.53125l0 -15.921875l-3.4375 0l0 -3.640625l3.4375 0l0 -6.84375l4.65625 -2.8125l0 9.65625l4.71875 0l0 3.640625l-4.71875 0l0 16.171875q0 2.015625 0.25 2.59375q0.25 0.5625 0.8125 0.90625q0.5625 0.328125 1.59375 0.328125q0.78125 0 2.0625 -0.171875zm2.8319092 -9.640625q0 -7.6875 4.28125 -11.375q3.5625 -3.078125 8.6875 -3.078125q5.703125 0 9.3125 3.734375q3.625 3.734375 3.625 10.328125q0 5.34375 -1.59375 8.40625q-1.59375 3.046875 -4.65625 4.75q-3.0625 1.6875 -6.6875 1.6875q-5.796875 0 -9.390625 -3.71875q-3.578125 -3.734375 -3.578125 -10.734375zm4.828125 0q0 5.3125 2.3125 7.953125q2.3125 2.640625 5.828125 2.640625q3.5 0 5.8125 -2.65625q2.3125 -2.65625 2.3125 -8.09375q0 -5.125 -2.328125 -7.765625q-2.328125 -2.65625 -5.796875 -2.65625q-3.515625 0 -5.828125 2.640625q-2.3125 2.625 -2.3125 7.9375zm25.72107 16.125l4.5625 0.671875q0.28125 2.109375 1.578125 3.078125q1.75 1.296875 4.765625 1.296875q3.265625 0 5.03125 -1.3125q1.765625 -1.296875 2.390625 -3.640625q0.375 -1.421875 0.34375 -6.015625q-3.078125 3.625 -7.65625 3.625q-5.703125 0 -8.828125 -4.109375q-3.125 -4.125 -3.125 -9.875q0 -3.953125 1.421875 -7.296875q1.4375 -3.359375 4.15625 -5.171875q2.734375 -1.828125 6.40625 -1.828125q4.890625 0 8.0625 3.953125l0 -3.328125l4.328125 0l0 23.90625q0 6.453125 -1.3125 9.140625q-1.3125 2.703125 -4.171875 4.265625q-2.84375 1.5625 -7.015625 1.5625q-4.953125 0 -8.0 -2.234375q-3.046875 -2.21875 -2.9375 -6.6875zm3.875 -16.625q0 5.453125 2.15625 7.953125q2.171875 2.5 5.421875 2.5q3.234375 0 5.421875 -2.484375q2.1875 -2.5 2.1875 -7.8125q0 -5.078125 -2.25 -7.65625q-2.25 -2.578125 -5.4375 -2.578125q-3.125 0 -5.3125 2.546875q-2.1875 2.53125 -2.1875 7.53125zm45.580444 5.421875l4.828125 0.59375q-1.140625 4.25 -4.234375 6.59375q-3.09375 2.34375 -7.921875 2.34375q-6.0625 0 -9.625 -3.734375q-3.546875 -3.734375 -3.546875 -10.484375q0 -6.984375 3.59375 -10.828125q3.59375 -3.859375 9.328125 -3.859375q5.546875 0 9.046875 3.78125q3.515625 3.765625 3.515625 10.625q0 0.40625 -0.015625 1.25l-20.625 0q0.265625 4.546875 2.578125 6.96875q2.3125 2.421875 5.78125 2.421875q2.578125 0 4.390625 -1.34375q1.828125 -1.359375 2.90625 -4.328125zm-15.390625 -7.578125l15.4375 0q-0.3125 -3.484375 -1.765625 -5.234375q-2.25 -2.703125 -5.8125 -2.703125q-3.234375 0 -5.4375 2.15625q-2.1875 2.15625 -2.421875 5.78125zm36.34607 12.296875l0.671875 4.140625q-1.96875 0.40625 -3.53125 0.40625q-2.5625 0 -3.96875 -0.796875q-1.40625 -0.8125 -1.984375 -2.125q-0.5625 -1.3125 -0.5625 -5.53125l0 -15.921875l-3.4375 0l0 -3.640625l3.4375 0l0 -6.84375l4.65625 -2.8125l0 9.65625l4.71875 0l0 3.640625l-4.71875 0l0 16.171875q0 2.015625 0.25 2.59375q0.25 0.5625 0.8125 0.90625q0.5625 0.328125 1.59375 0.328125q0.78125 0 2.0625 -0.171875zm4.581909 4.1875l0 -38.171875l4.6875 0l0 13.6875q3.28125 -3.796875 8.28125 -3.796875q3.078125 0 5.34375 1.21875q2.265625 1.203125 3.234375 3.34375q0.984375 2.125 0.984375 6.1875l0 17.53125l-4.6875 0l0 -17.53125q0 -3.515625 -1.53125 -5.109375q-1.515625 -1.609375 -4.3125 -1.609375q-2.078125 0 -3.921875 1.09375q-1.828125 1.078125 -2.609375 2.921875q-0.78125 1.84375 -0.78125 5.109375l0 15.125l-4.6875 0zm48.59607 -8.90625l4.828125 0.59375q-1.140625 4.25 -4.234375 6.59375q-3.09375 2.34375 -7.921875 2.34375q-6.0625 0 -9.625 -3.734375q-3.546875 -3.734375 -3.546875 -10.484375q0 -6.984375 3.59375 -10.828125q3.59375 -3.859375 9.328125 -3.859375q5.546875 0 9.046875 3.78125q3.515625 3.765625 3.515625 10.625q0 0.40625 -0.015625 1.25l-20.625 0q0.265625 4.546875 2.578125 6.96875q2.3125 2.421875 5.78125 2.421875q2.578125 0 4.390625 -1.34375q1.828125 -1.359375 2.90625 -4.328125zm-15.390625 -7.578125l15.4375 0q-0.3125 -3.484375 -1.765625 -5.234375q-2.25 -2.703125 -5.8125 -2.703125q-3.234375 0 -5.4375 2.15625q-2.1875 2.15625 -2.421875 5.78125zm26.06482 16.484375l0 -27.65625l4.21875 0l0 4.1875q1.609375 -2.9375 2.96875 -3.875q1.375 -0.9375 3.015625 -0.9375q2.375 0 4.8125 1.515625l-1.609375 4.34375q-1.71875 -1.015625 -3.4375 -1.015625q-1.53125 0 -2.765625 0.921875q-1.21875 0.921875 -1.734375 2.5625q-0.78125 2.5 -0.78125 5.46875l0 14.484375l-4.6875 0z" fill-rule="nonzero"/><path fill="#000000" fill-opacity="0.0" d="m171.8924 470.48294l546.58264 0l0 123.62204l-546.58264 0z" fill-rule="evenodd"/><path fill="#ffffff" d="m272.5314 517.88293l0 -12.125l-11.03125 -16.515625l4.609375 0l5.640625 8.640625q1.5625 2.421875 2.90625 4.84375q1.296875 -2.25 3.125 -5.0625l5.546875 -8.421875l4.421875 0l-11.4375 16.515625l0 12.125l-3.78125 0zm13.1796875 -10.375q0 -5.765625 3.203125 -8.53125q2.671875 -2.3125 6.53125 -2.3125q4.265625 0 6.984375 2.8125q2.71875 2.796875 2.71875 7.734375q0 4.015625 -1.203125 6.3125q-1.203125 2.28125 -3.5 3.5625q-2.296875 1.265625 -5.0 1.265625q-4.359375 0 -7.046875 -2.796875q-2.6875 -2.796875 -2.6875 -8.046875zm3.609375 0q0 3.984375 1.734375 5.96875q1.75 1.984375 4.390625 1.984375q2.609375 0 4.34375 -1.984375q1.75 -2.0 1.75 -6.078125q0 -3.859375 -1.75 -5.828125q-1.75 -1.984375 -4.34375 -1.984375q-2.640625 0 -4.390625 1.96875q-1.734375 1.96875 -1.734375 5.953125zm33.54297 10.375l0 -3.046875q-2.421875 3.515625 -6.578125 3.515625q-1.84375 0 -3.4375 -0.703125q-1.59375 -0.703125 -2.359375 -1.765625q-0.765625 -1.0625 -1.078125 -2.609375q-0.21875 -1.03125 -0.21875 -3.28125l0 -12.859375l3.515625 0l0 11.515625q0 2.75 0.21875 3.703125q0.328125 1.390625 1.390625 2.1875q1.078125 0.78125 2.671875 0.78125q1.578125 0 2.953125 -0.8125q1.390625 -0.8125 1.96875 -2.203125q0.578125 -1.390625 0.578125 -4.046875l0 -11.125l3.515625 0l0 20.75l-3.140625 0zm8.605469 0l0 -20.75l3.171875 0l0 3.15625q1.203125 -2.21875 2.234375 -2.921875q1.03125 -0.703125 2.25 -0.703125q1.78125 0 3.625 1.140625l-1.21875 3.265625q-1.28125 -0.765625 -2.578125 -0.765625q-1.15625 0 -2.078125 0.703125q-0.90625 0.6875 -1.296875 1.90625q-0.59375 1.875 -0.59375 4.109375l0 10.859375l-3.515625 0zm25.324219 0l0 -18.015625l-3.109375 0l0 -2.734375l3.109375 0l0 -2.203125q0 -2.09375 0.359375 -3.109375q0.515625 -1.359375 1.796875 -2.203125q1.28125 -0.859375 3.578125 -0.859375q1.484375 0 3.28125 0.359375l-0.53125 3.0625q-1.09375 -0.203125 -2.0625 -0.203125q-1.609375 0 -2.28125 0.6875q-0.65625 0.6875 -0.65625 2.5625l0 1.90625l4.046875 0l0 2.734375l-4.046875 0l0 18.015625l-3.484375 0zm10.222656 0l0 -20.75l3.171875 0l0 3.15625q1.203125 -2.21875 2.234375 -2.921875q1.03125 -0.703125 2.25 -0.703125q1.78125 0 3.625 1.140625l-1.21875 3.265625q-1.28125 -0.765625 -2.578125 -0.765625q-1.15625 0 -2.078125 0.703125q-0.90625 0.6875 -1.296875 1.90625q-0.59375 1.875 -0.59375 4.109375l0 10.859375l-3.515625 0zm13.3828125 -24.59375l0 -4.046875l3.515625 0l0 4.046875l-3.515625 0zm0 24.59375l0 -20.75l3.515625 0l0 20.75l-3.515625 0zm23.074219 -6.6875l3.625 0.453125q-0.859375 3.1875 -3.1875 4.953125q-2.3125 1.75 -5.9375 1.75q-4.546875 0 -7.21875 -2.796875q-2.65625 -2.8125 -2.65625 -7.875q0 -5.234375 2.6875 -8.125q2.703125 -2.890625 7.0 -2.890625q4.15625 0 6.796875 2.84375q2.640625 2.828125 2.640625 7.96875q0 0.3125 -0.03125 0.9375l-15.46875 0q0.203125 3.40625 1.9375 5.234375q1.734375 1.8125 4.34375 1.8125q1.921875 0 3.28125 -1.015625q1.375 -1.015625 2.1875 -3.25zm-11.546875 -5.671875l11.578125 0q-0.234375 -2.625 -1.328125 -3.9375q-1.671875 -2.03125 -4.359375 -2.03125q-2.421875 0 -4.078125 1.625q-1.640625 1.625 -1.8125 4.34375zm19.589844 12.359375l0 -20.75l3.15625 0l0 2.953125q2.296875 -3.421875 6.609375 -3.421875q1.875 0 3.4375 0.6875q1.578125 0.671875 2.359375 1.765625q0.78125 1.09375 1.09375 2.59375q0.203125 0.96875 0.203125 3.421875l0 12.75l-3.515625 0l0 -12.625q0 -2.140625 -0.421875 -3.203125q-0.40625 -1.0625 -1.453125 -1.703125q-1.046875 -0.640625 -2.453125 -0.640625q-2.234375 0 -3.875 1.4375q-1.625 1.421875 -1.625 5.40625l0 11.328125l-3.515625 0zm35.69922 0l0 -2.625q-1.96875 3.09375 -5.796875 3.09375q-2.484375 0 -4.5625 -1.359375q-2.078125 -1.375 -3.21875 -3.828125q-1.140625 -2.453125 -1.140625 -5.640625q0 -3.09375 1.03125 -5.625q1.03125 -2.53125 3.09375 -3.875q2.078125 -1.359375 4.640625 -1.359375q1.875 0 3.328125 0.796875q1.46875 0.796875 2.390625 2.0625l0 -10.28125l3.5 0l0 28.640625l-3.265625 0zm-11.109375 -10.359375q0 3.984375 1.671875 5.96875q1.6875 1.96875 3.96875 1.96875q2.3125 0 3.921875 -1.875q1.609375 -1.890625 1.609375 -5.765625q0 -4.25 -1.640625 -6.234375q-1.640625 -2.0 -4.046875 -2.0q-2.34375 0 -3.921875 1.921875q-1.5625 1.90625 -1.5625 6.015625zm31.03125 -14.234375l0 -4.046875l3.515625 0l0 4.046875l-3.515625 0zm0 24.59375l0 -20.75l3.515625 0l0 20.75l-3.515625 0zm7.4648438 -6.1875l3.46875 -0.546875q0.296875 2.078125 1.625 3.203125q1.34375 1.109375 3.75 1.109375q2.421875 0 3.59375 -0.984375q1.171875 -0.984375 1.171875 -2.3125q0 -1.203125 -1.03125 -1.875q-0.71875 -0.46875 -3.59375 -1.203125q-3.875 -0.96875 -5.375 -1.671875q-1.484375 -0.71875 -2.265625 -1.984375q-0.765625 -1.265625 -0.765625 -2.78125q0 -1.390625 0.640625 -2.5625q0.640625 -1.1875 1.734375 -1.96875q0.8125 -0.609375 2.21875 -1.03125q1.421875 -0.421875 3.046875 -0.421875q2.4375 0 4.28125 0.703125q1.859375 0.703125 2.734375 1.90625q0.875 1.203125 1.203125 3.21875l-3.4375 0.46875q-0.234375 -1.609375 -1.359375 -2.5q-1.109375 -0.90625 -3.171875 -0.90625q-2.421875 0 -3.453125 0.8125q-1.03125 0.796875 -1.03125 1.875q0 0.671875 0.421875 1.21875q0.4375 0.578125 1.359375 0.9375q0.515625 0.203125 3.09375 0.90625q3.734375 1.0 5.203125 1.640625q1.484375 0.625 2.3125 1.84375q0.84375 1.203125 0.84375 3.0q0 1.75 -1.03125 3.3125q-1.015625 1.546875 -2.953125 2.40625q-1.921875 0.84375 -4.375 0.84375q-4.03125 0 -6.15625 -1.671875q-2.125 -1.6875 -2.703125 -4.984375zm32.535156 -18.40625l0 -4.046875l3.515625 0l0 4.046875l-3.515625 0zm0 24.59375l0 -20.75l3.515625 0l0 20.75l-3.515625 0zm8.871063 0l0 -20.75l3.15625 0l0 2.953125q2.296875 -3.421875 6.609375 -3.421875q1.875 0 3.4375 0.6875q1.578125 0.671875 2.359375 1.765625q0.78125 1.09375 1.09375 2.59375q0.203125 0.96875 0.203125 3.421875l0 12.75l-3.515625 0l0 -12.625q0 -2.140625 -0.421875 -3.203125q-0.40625 -1.0625 -1.453125 -1.703125q-1.046875 -0.640625 -2.453125 -0.640625q-2.234375 0 -3.875 1.4375q-1.625 1.421875 -1.625 5.40625l0 11.328125l-3.515625 0zm28.011719 0l-7.890625 -20.75l3.703125 0l4.453125 12.421875q0.71875 2.015625 1.328125 4.1875q0.46875 -1.640625 1.3125 -3.953125l4.609375 -12.65625l3.609375 0l-7.84375 20.75l-3.28125 0zm14.25 -24.59375l0 -4.046875l3.515625 0l0 4.046875l-3.515625 0zm0 24.59375l0 -20.75l3.515625 0l0 20.75l-3.515625 0zm16.542969 -3.140625l0.515625 3.09375q-1.484375 0.328125 -2.65625 0.328125q-1.921875 0 -2.984375 -0.609375q-1.046875 -0.609375 -1.484375 -1.59375q-0.421875 -0.984375 -0.421875 -4.15625l0 -11.9375l-2.578125 0l0 -2.734375l2.578125 0l0 -5.125l3.5 -2.109375l0 7.234375l3.53125 0l0 2.734375l-3.53125 0l0 12.140625q0 1.5 0.1875 1.9375q0.1875 0.421875 0.59375 0.671875q0.421875 0.25 1.203125 0.25q0.59375 0 1.546875 -0.125zm3.4570312 -21.453125l0 -4.046875l3.515625 0l0 4.046875l-3.515625 0zm0 24.59375l0 -20.75l3.515625 0l0 20.75l-3.515625 0zm8.871094 0l0 -20.75l3.15625 0l0 2.953125q2.296875 -3.421875 6.609375 -3.421875q1.875 0 3.4375 0.6875q1.578125 0.671875 2.359375 1.765625q0.78125 1.09375 1.09375 2.59375q0.203125 0.96875 0.203125 3.421875l0 12.75l-3.515625 0l0 -12.625q0 -2.140625 -0.421875 -3.203125q-0.40625 -1.0625 -1.453125 -1.703125q-1.046875 -0.640625 -2.453125 -0.640625q-2.234375 0 -3.875 1.4375q-1.625 1.421875 -1.625 5.40625l0 11.328125l-3.515625 0zm21.605469 1.71875l3.40625 0.515625q0.21875 1.578125 1.203125 2.296875q1.296875 0.984375 3.5625 0.984375q2.453125 0 3.78125 -0.984375q1.328125 -0.96875 1.796875 -2.734375q0.265625 -1.078125 0.25 -4.515625q-2.3125 2.71875 -5.75 2.71875q-4.265625 0 -6.609375 -3.078125q-2.34375 -3.09375 -2.34375 -7.40625q0 -2.96875 1.0625 -5.484375q1.078125 -2.515625 3.109375 -3.875q2.046875 -1.375 4.8125 -1.375q3.671875 0 6.046875 2.96875l0 -2.5l3.25 0l0 17.9375q0 4.84375 -1.0 6.859375q-0.984375 2.03125 -3.125 3.203125q-2.125 1.171875 -5.25 1.171875q-3.71875 0 -6.0 -1.671875q-2.28125 -1.671875 -2.203125 -5.03125zm2.90625 -12.46875q0 4.09375 1.609375 5.96875q1.625 1.875 4.078125 1.875q2.421875 0 4.0625 -1.859375q1.640625 -1.875 1.640625 -5.859375q0 -3.8125 -1.703125 -5.734375q-1.6875 -1.9375 -4.0625 -1.9375q-2.34375 0 -3.984375 1.90625q-1.640625 1.890625 -1.640625 5.640625z" fill-rule="nonzero"/><path fill="#ffffff" d="m243.10757 581.0673l-0.390625 -3.296875q1.15625 0.3125 2.015625 0.3125q1.171875 0 1.875 -0.390625q0.703125 -0.390625 1.140625 -1.09375q0.34375 -0.53125 1.078125 -2.609375q0.09375 -0.296875 0.3125 -0.859375l-7.875 -20.796875l3.796875 0l4.3125 12.015625q0.84375 2.28125 1.5 4.8125q0.609375 -2.421875 1.453125 -4.734375l4.4375 -12.09375l3.515625 0l-7.890625 21.109375q-1.28125 3.40625 -1.984375 4.703125q-0.9375 1.734375 -2.15625 2.546875q-1.203125 0.8125 -2.875 0.8125q-1.015625 0 -2.265625 -0.4375zm18.84375 -18.359375q0 -5.765625 3.203125 -8.53125q2.671875 -2.3125 6.53125 -2.3125q4.265625 0 6.984375 2.8125q2.71875 2.796875 2.71875 7.734375q0 4.015625 -1.203125 6.3125q-1.203125 2.28125 -3.5 3.5625q-2.296875 1.265625 -5.0 1.265625q-4.359375 0 -7.046875 -2.796875q-2.6875 -2.796875 -2.6875 -8.046875zm3.609375 0q0 3.984375 1.734375 5.96875q1.75 1.984375 4.390625 1.984375q2.609375 0 4.34375 -1.984375q1.75 -2.0 1.75 -6.078125q0 -3.859375 -1.75 -5.828125q-1.75 -1.984375 -4.34375 -1.984375q-2.640625 0 -4.390625 1.96875q-1.734375 1.96875 -1.734375 5.953125zm33.54297 10.375l0 -3.046875q-2.421875 3.515625 -6.578125 3.515625q-1.84375 0 -3.4375 -0.703125q-1.59375 -0.703125 -2.359375 -1.765625q-0.765625 -1.0625 -1.078125 -2.609375q-0.21875 -1.03125 -0.21875 -3.28125l0 -12.859375l3.515625 0l0 11.515625q0 2.75 0.21875 3.703125q0.328125 1.390625 1.390625 2.1875q1.078125 0.78125 2.671875 0.78125q1.578125 0 2.953125 -0.8125q1.390625 -0.8125 1.96875 -2.203125q0.578125 -1.390625 0.578125 -4.046875l0 -11.125l3.515625 0l0 20.75l-3.140625 0zm27.4375 -3.140625l0.515625 3.09375q-1.484375 0.328125 -2.65625 0.328125q-1.921875 0 -2.984375 -0.609375q-1.046875 -0.609375 -1.484375 -1.59375q-0.421875 -0.984375 -0.421875 -4.15625l0 -11.9375l-2.578125 0l0 -2.734375l2.578125 0l0 -5.125l3.5 -2.109375l0 7.234375l3.53125 0l0 2.734375l-3.53125 0l0 12.140625q0 1.5 0.1875 1.9375q0.1875 0.421875 0.59375 0.671875q0.421875 0.25 1.203125 0.25q0.59375 0 1.546875 -0.125zm2.1289062 -7.234375q0 -5.765625 3.203125 -8.53125q2.671875 -2.3125 6.53125 -2.3125q4.265625 0 6.984375 2.8125q2.71875 2.796875 2.71875 7.734375q0 4.015625 -1.203125 6.3125q-1.203125 2.28125 -3.5 3.5625q-2.296875 1.265625 -5.0 1.265625q-4.359375 0 -7.046875 -2.796875q-2.6875 -2.796875 -2.6875 -8.046875zm3.609375 0q0 3.984375 1.734375 5.96875q1.75 1.984375 4.390625 1.984375q2.609375 0 4.34375 -1.984375q1.75 -2.0 1.75 -6.078125q0 -3.859375 -1.75 -5.828125q-1.75 -1.984375 -4.34375 -1.984375q-2.640625 0 -4.390625 1.96875q-1.734375 1.96875 -1.734375 5.953125zm31.046875 -14.171875l0 -4.09375l3.515625 0l0 4.09375l-3.515625 0zm-4.46875 32.59375l0.671875 -2.984375q1.046875 0.265625 1.65625 0.265625q1.078125 0 1.609375 -0.71875q0.53125 -0.703125 0.53125 -3.546875l0 -21.8125l3.515625 0l0 21.890625q0 3.828125 -1.0 5.328125q-1.265625 1.953125 -4.21875 1.953125q-1.4375 0 -2.765625 -0.375zm12.058594 -18.421875q0 -5.765625 3.203125 -8.53125q2.671875 -2.3125 6.53125 -2.3125q4.265625 0 6.984375 2.8125q2.71875 2.796875 2.71875 7.734375q0 4.015625 -1.203125 6.3125q-1.203125 2.28125 -3.5 3.5625q-2.296875 1.265625 -5.0 1.265625q-4.359375 0 -7.046875 -2.796875q-2.6875 -2.796875 -2.6875 -8.046875zm3.609375 0q0 3.984375 1.734375 5.96875q1.75 1.984375 4.390625 1.984375q2.609375 0 4.34375 -1.984375q1.75 -2.0 1.75 -6.078125q0 -3.859375 -1.75 -5.828125q-1.75 -1.984375 -4.34375 -1.984375q-2.640625 0 -4.390625 1.96875q-1.734375 1.96875 -1.734375 5.953125zm19.964844 -14.21875l0 -4.046875l3.515625 0l0 4.046875l-3.515625 0zm0 24.59375l0 -20.75l3.515625 0l0 20.75l-3.515625 0zm8.871094 0l0 -20.75l3.15625 0l0 2.953125q2.296875 -3.421875 6.609375 -3.421875q1.875 0 3.4375 0.6875q1.578125 0.671875 2.359375 1.765625q0.78125 1.09375 1.09375 2.59375q0.203125 0.96875 0.203125 3.421875l0 12.75l-3.515625 0l0 -12.625q0 -2.140625 -0.421875 -3.203125q-0.40625 -1.0625 -1.453125 -1.703125q-1.046875 -0.640625 -2.453125 -0.640625q-2.234375 0 -3.875 1.4375q-1.625 1.421875 -1.625 5.40625l0 11.328125l-3.515625 0zm41.03125 -3.140625l0.515625 3.09375q-1.484375 0.328125 -2.65625 0.328125q-1.921875 0 -2.984375 -0.609375q-1.046875 -0.609375 -1.484375 -1.59375q-0.421875 -0.984375 -0.421875 -4.15625l0 -11.9375l-2.578125 0l0 -2.734375l2.578125 0l0 -5.125l3.5 -2.109375l0 7.234375l3.53125 0l0 2.734375l-3.53125 0l0 12.140625q0 1.5 0.1875 1.9375q0.1875 0.421875 0.59375 0.671875q0.421875 0.25 1.203125 0.25q0.59375 0 1.546875 -0.125zm3.4414062 3.140625l0 -28.640625l3.515625 0l0 10.28125q2.453125 -2.859375 6.203125 -2.859375q2.3125 0 4.0 0.921875q1.703125 0.90625 2.4375 2.515625q0.734375 1.59375 0.734375 4.640625l0 13.140625l-3.515625 0l0 -13.140625q0 -2.640625 -1.140625 -3.84375q-1.140625 -1.203125 -3.234375 -1.203125q-1.5625 0 -2.9375 0.8125q-1.375 0.8125 -1.96875 2.203125q-0.578125 1.375 -0.578125 3.828125l0 11.34375l-3.515625 0zm36.44922 -6.6875l3.625 0.453125q-0.859375 3.1875 -3.1875 4.953125q-2.3125 1.75 -5.9375 1.75q-4.546875 0 -7.21875 -2.796875q-2.65625 -2.8125 -2.65625 -7.875q0 -5.234375 2.6875 -8.125q2.703125 -2.890625 7.0 -2.890625q4.15625 0 6.796875 2.84375q2.640625 2.828125 2.640625 7.96875q0 0.3125 -0.03125 0.9375l-15.46875 0q0.203125 3.40625 1.9375 5.234375q1.734375 1.8125 4.34375 1.8125q1.921875 0 3.28125 -1.015625q1.375 -1.015625 2.1875 -3.25zm-11.546875 -5.671875l11.578125 0q-0.234375 -2.625 -1.328125 -3.9375q-1.671875 -2.03125 -4.359375 -2.03125q-2.421875 0 -4.078125 1.625q-1.640625 1.625 -1.8125 4.34375zm30.703125 20.3125l0 -28.703125l3.203125 0l0 2.703125q1.125 -1.578125 2.546875 -2.375q1.4375 -0.796875 3.4687195 -0.796875q2.65625 0 4.6875 1.375q2.03125 1.359375 3.0625 3.859375q1.03125 2.484375 1.03125 5.453125q0 3.1875 -1.140625 5.734375q-1.140625 2.546875 -3.328125 3.90625q-2.171875 1.359375 -4.5625 1.359375q-1.7655945 0 -3.1718445 -0.734375q-1.390625 -0.75 -2.28125 -1.890625l0 10.109375l-3.515625 0zm3.1875 -18.203125q0 4.0 1.609375 5.921875q1.625 1.90625 3.9374695 1.90625q2.34375 0 4.0 -1.984375q1.671875 -1.984375 1.671875 -6.140625q0 -3.96875 -1.625 -5.9375q-1.625 -1.96875 -3.890625 -1.96875q-2.2499695 0 -3.9843445 2.09375q-1.71875 2.09375 -1.71875 6.109375zm19.011688 10.25l0 -20.75l3.171875 0l0 3.15625q1.203125 -2.21875 2.234375 -2.921875q1.03125 -0.703125 2.25 -0.703125q1.78125 0 3.625 1.140625l-1.21875 3.265625q-1.28125 -0.765625 -2.578125 -0.765625q-1.15625 0 -2.078125 0.703125q-0.90625 0.6875 -1.296875 1.90625q-0.59375 1.875 -0.59375 4.109375l0 10.859375l-3.515625 0zm12.0546875 -10.375q0 -5.765625 3.203125 -8.53125q2.671875 -2.3125 6.53125 -2.3125q4.265625 0 6.984375 2.8125q2.71875 2.796875 2.71875 7.734375q0 4.015625 -1.203125 6.3125q-1.203125 2.28125 -3.5 3.5625q-2.296875 1.265625 -5.0 1.265625q-4.359375 0 -7.046875 -2.796875q-2.6875 -2.796875 -2.6875 -8.046875zm3.609375 0q0 3.984375 1.734375 5.96875q1.75 1.984375 4.390625 1.984375q2.609375 0 4.34375 -1.984375q1.75 -2.0 1.75 -6.078125q0 -3.859375 -1.75 -5.828125q-1.75 -1.984375 -4.34375 -1.984375q-2.640625 0 -4.390625 1.96875q-1.734375 1.96875 -1.734375 5.953125zm19.308594 12.09375l3.40625 0.515625q0.21875 1.578125 1.203125 2.296875q1.296875 0.984375 3.5625 0.984375q2.453125 0 3.78125 -0.984375q1.328125 -0.96875 1.796875 -2.734375q0.265625 -1.078125 0.25 -4.515625q-2.3125 2.71875 -5.75 2.71875q-4.265625 0 -6.609375 -3.078125q-2.34375 -3.09375 -2.34375 -7.40625q0 -2.96875 1.0625 -5.484375q1.078125 -2.515625 3.109375 -3.875q2.046875 -1.375 4.8125 -1.375q3.671875 0 6.046875 2.96875l0 -2.5l3.25 0l0 17.9375q0 4.84375 -1.0 6.859375q-0.984375 2.03125 -3.125 3.203125q-2.125 1.171875 -5.25 1.171875q-3.71875 0 -6.0 -1.671875q-2.28125 -1.671875 -2.203125 -5.03125zm2.90625 -12.46875q0 4.09375 1.609375 5.96875q1.625 1.875 4.078125 1.875q2.421875 0 4.0625 -1.859375q1.640625 -1.875 1.640625 -5.859375q0 -3.8125 -1.703125 -5.734375q-1.6875 -1.9375 -4.0625 -1.9375q-2.34375 0 -3.984375 1.90625q-1.640625 1.890625 -1.640625 5.640625zm19.933594 10.75l0 -20.75l3.171875 0l0 3.15625q1.203125 -2.21875 2.234375 -2.921875q1.03125 -0.703125 2.25 -0.703125q1.78125 0 3.625 1.140625l-1.21875 3.265625q-1.28125 -0.765625 -2.578125 -0.765625q-1.15625 0 -2.078125 0.703125q-0.90625 0.6875 -1.296875 1.90625q-0.59375 1.875 -0.59375 4.109375l0 10.859375l-3.515625 0zm26.898438 -2.5625q-1.953125 1.65625 -3.765625 2.34375q-1.796875 0.6875 -3.875 0.6875q-3.40625 0 -5.25 -1.671875q-1.828125 -1.671875 -1.828125 -4.265625q0 -1.53125 0.6875 -2.78125q0.6875 -1.265625 1.8125 -2.015625q1.125 -0.765625 2.53125 -1.15625q1.03125 -0.28125 3.125 -0.53125q4.265625 -0.515625 6.265625 -1.21875q0.03125 -0.71875 0.03125 -0.90625q0 -2.15625 -1.0 -3.03125q-1.34375 -1.1875 -4.0 -1.1875q-2.484375 0 -3.671875 0.875q-1.171875 0.859375 -1.75 3.0625l-3.4375 -0.46875q0.46875 -2.203125 1.546875 -3.5625q1.078125 -1.359375 3.109375 -2.09375q2.03125 -0.734375 4.703125 -0.734375q2.65625 0 4.3125 0.625q1.671875 0.625 2.453125 1.578125q0.78125 0.953125 1.09375 2.390625q0.171875 0.90625 0.171875 3.25l0 4.6875q0 4.890625 0.21875 6.203125q0.234375 1.296875 0.890625 2.484375l-3.671875 0q-0.546875 -1.09375 -0.703125 -2.5625zm-0.296875 -7.84375q-1.90625 0.78125 -5.734375 1.328125q-2.171875 0.3125 -3.078125 0.703125q-0.890625 0.390625 -1.375 1.140625q-0.484375 0.75 -0.484375 1.671875q0 1.40625 1.0625 2.34375q1.0625 0.9375 3.109375 0.9375q2.03125 0 3.609375 -0.890625q1.59375 -0.890625 2.328125 -2.4375q0.5625 -1.1875 0.5625 -3.515625l0 -1.28125zm9.011719 10.40625l0 -20.75l3.140625 0l0 2.921875q0.984375 -1.53125 2.59375 -2.453125q1.625 -0.9375 3.703125 -0.9375q2.296875 0 3.765625 0.96875q1.484375 0.953125 2.09375 2.671875q2.453125 -3.640625 6.40625 -3.640625q3.078125 0 4.734375 1.71875q1.671875 1.703125 1.671875 5.265625l0 14.234375l-3.5 0l0 -13.0625q0 -2.109375 -0.34375 -3.03125q-0.34375 -0.9375 -1.25 -1.5q-0.890625 -0.578125 -2.09375 -0.578125q-2.1875 0 -3.640625 1.46875q-1.4375 1.453125 -1.4375 4.65625l0 12.046875l-3.515625 0l0 -13.484375q0 -2.34375 -0.859375 -3.515625q-0.859375 -1.171875 -2.8125 -1.171875q-1.484375 0 -2.75 0.78125q-1.265625 0.78125 -1.828125 2.296875q-0.5625 1.5 -0.5625 4.328125l0 10.765625l-3.515625 0z" fill-rule="nonzero"/></g></svg>